<svg width="40" height="40" viewBox="0 0 40 40" fill="none" xmlns="http://www.w3.org/2000/svg">
<path d="M6.00382 8.37305H5.03209L3.33156 13.1291L3.31445 13.177H4.38883L4.63861 12.4413H6.3973L6.64023 13.153L6.64708 13.177H7.72146L6.01408 8.39358L6.00382 8.36963V8.37305ZM6.06883 11.4901H4.9705L5.52138 9.87855L6.07225 11.4901H6.06883Z" fill="#1D1D1B"/>
<path d="M7.76294 9.36531H9.135V13.1804H10.2094V9.36531H11.5746V8.37305H7.76294V9.36531Z" fill="#1D1D1B"/>
<path d="M15.9195 8.37305L14.6056 11.5141L13.3089 8.397L13.2986 8.37305H12.1284V13.1804H13.1823V10.3747L14.3559 13.1564L14.3661 13.1804H14.8486L16.0359 10.3713V13.1804H17.0897V8.37305H15.9195Z" fill="#1D1D1B"/>
<path d="M37 9.61499C36.9726 9.05727 36.4662 8.00342 34.7622 8H25.5719C25.1784 8.03079 24.7609 8.19503 24.3333 8.48586L20.176 10.8604C20.0426 10.9152 19.9228 10.987 19.8065 11.076C19.7757 11.0965 19.7483 11.1205 19.7141 11.1513C19.6559 11.2026 19.608 11.2505 19.5636 11.3018L17.343 13.9125C17.2027 14.0802 17.1685 14.3162 17.2608 14.5147C17.3532 14.7131 17.5551 14.8432 17.7741 14.8432H20.7372C20.898 14.8432 21.0519 14.7747 21.158 14.655L21.7328 14.0186L26.2699 13.235C26.3246 13.2248 26.3965 13.2179 26.4649 13.2179C26.6257 13.2179 26.8447 13.2453 26.9816 13.3685L28.8942 15.0485L25.3631 17.1493C24.737 17.6147 23.7892 18.778 24.2101 20.1808C24.2443 20.2664 24.5796 21.0054 25.3187 21.0807C25.3768 21.091 25.4418 21.0944 25.5137 21.0944C25.63 21.0944 25.8114 21.0807 26.0372 21.0123C26.1433 20.9747 26.6702 20.6838 27.2655 20.3348L35.7785 15.3222C35.8435 15.288 35.9085 15.2503 35.9564 15.2195C36.0316 15.1716 36.1822 15.0656 36.3533 14.8705C36.7844 14.3984 37 13.7825 37 13.0332V9.61157V9.61499ZM26.0338 18.0629L29.469 16.0168C30.102 15.5104 30.0302 14.72 29.6299 14.2033C29.6093 14.176 29.5854 14.1486 29.5546 14.1212L27.7343 12.5268C27.3374 12.1641 26.8276 12.0888 26.4717 12.0888C26.2596 12.0888 26.1022 12.1162 26.0612 12.1264L21.3428 12.9408C21.2196 12.9613 21.1033 13.0263 21.0212 13.1187L20.484 13.714H18.999L20.4908 11.9759C20.5284 11.9451 20.5798 11.9143 20.6345 11.8938C20.6585 11.8835 20.6858 11.8732 20.7132 11.8561L24.932 9.44391C25.0792 9.34468 25.2229 9.26257 25.3597 9.2044L25.3837 9.19413L25.3768 9.13254H34.7622C35.6963 9.13254 35.8469 9.52945 35.8674 9.64236V13.0811C35.8674 13.5156 35.7477 13.8578 35.5013 14.1246C35.4363 14.1965 35.3679 14.2581 35.3268 14.2786L26.6873 19.3631C26.1741 19.6642 25.8216 19.8592 25.6129 19.9584H25.5856L25.5445 20.0029L25.435 19.9516C25.346 19.9105 25.281 19.7942 25.2537 19.736C25.0552 18.9046 25.8695 18.1929 26.0304 18.0629H26.0338Z" fill="#1D1D1B"/>
<path d="M31.6968 20.9062H29.6986V22.2578H31.0228V30.5585H4.35153V22.2578H5.48749V20.9062H3.67405C3.3011 20.9062 3 21.2108 3 21.5803V31.2326C3 31.6055 3.30452 31.9066 3.67405 31.9066H31.6968C32.0698 31.9066 32.3709 31.6021 32.3709 31.2326V21.5803C32.3709 21.2073 32.0664 20.9062 31.6968 20.9062Z" fill="#1D1D1B"/>
<path d="M20.9357 21.2312L21.3429 19.4075H20.4841L20.0974 21.2312H19.3379L18.7528 19.4314L18.7425 19.4075H17.9863L17.3944 21.2312H16.6348L16.255 19.4348L16.2482 19.4075H15.3859L15.7965 21.2312H14.64V21.9566H15.9607L16.4158 23.9958H17.2404L17.9042 21.9566H18.828L19.4884 23.9719L19.4987 23.9958H20.3233L20.7818 21.9566H22.1025V21.2312H20.946H20.9357ZM19.7963 22.6477L19.5705 21.9566H19.94L19.7929 22.6477H19.7963ZM18.5851 21.2312H18.1369L18.3593 20.5434L18.5851 21.2312ZM16.7853 21.9566H17.1583L16.9325 22.6477L16.7853 21.9566Z" fill="#1D1D1B"/>
<path d="M27.5291 21.1968V26.0623H8.55987V17.2518H23.4472V16.0474H7.95767C7.62577 16.0474 7.35547 16.3177 7.35547 16.6496V26.6645C7.35547 26.9964 7.62577 27.2667 7.95767 27.2667H28.1313C28.4632 27.2667 28.7335 26.9964 28.7335 26.6645V21.1968H27.5291Z" fill="#1D1D1B"/>
</svg>
