<svg width="40" height="40" viewBox="0 0 40 40" fill="none" xmlns="http://www.w3.org/2000/svg">
<path fill-rule="evenodd" clip-rule="evenodd" d="M18.9437 10.9843H16.1125L16.0938 13.2005H14.8438V10.7005C14.8454 10.4559 14.9467 10.2219 15.1257 10.0489C15.3046 9.876 15.5469 9.77815 15.8 9.77657H17.675V8.42391C17.6766 8.17937 17.7779 7.94528 17.9569 7.77236C18.1359 7.59943 18.3781 7.50158 18.6312 7.5H21.1312C21.3844 7.50158 21.6266 7.59943 21.8056 7.77236C21.9846 7.94528 22.0859 8.17937 22.0875 8.42391V9.77657H23.9625C24.2156 9.77815 24.4579 9.876 24.6368 10.0489C24.8158 10.2219 24.9171 10.4559 24.9187 10.7005V13.2005H23.6687V10.9843H20.8187V8.70773H18.9437V10.9843ZM14.2 13.9011H25.5625C25.8471 13.9027 26.1196 14.0126 26.3208 14.207C26.5221 14.4015 26.6359 14.6647 26.6375 14.9397V31.1414C26.6359 31.4164 26.5221 31.6796 26.3208 31.8741C26.1196 32.0685 25.8471 32.1785 25.5625 32.18H14.2C14.0588 32.18 13.919 32.1532 13.7886 32.101C13.6582 32.0488 13.5397 31.9723 13.4399 31.8758C13.34 31.7794 13.2608 31.6649 13.2068 31.5389C13.1528 31.4128 13.125 31.2778 13.125 31.1414V14.9397C13.125 14.8033 13.1528 14.6682 13.2068 14.5422C13.2608 14.4162 13.34 14.3017 13.4399 14.2053C13.5397 14.1088 13.6582 14.0323 13.7886 13.9801C13.919 13.9279 14.0588 13.9011 14.2 13.9011ZM14.375 30.9723H25.3875V15.1631H14.375V18.1825H17.3188V19.3902H14.375V22.1197H17.3188V23.3274H14.375V26.0327H17.3188V27.2404H14.375V30.9723Z" fill="#393734"/>
</svg>
