<svg width="34" height="46" viewBox="0 0 34 46" fill="none" xmlns="http://www.w3.org/2000/svg">
<path fill-rule="evenodd" clip-rule="evenodd" d="M31.35 17.1245C31.35 19.6495 30.4799 22.5492 29.0104 25.5943C27.5531 28.6141 25.5857 31.6152 23.5782 34.2991C21.5758 36.976 19.5678 39.292 18.0583 40.9401C17.7689 41.2561 17.4982 41.547 17.25 41.8107C17.0018 41.547 16.7311 41.2561 16.4417 40.9401C14.9322 39.292 12.9242 36.976 10.9218 34.2991C8.91432 31.6152 6.9469 28.6141 5.4896 25.5943C4.02009 22.5492 3.15 19.6495 3.15 17.1245C3.15 9.07906 9.51334 2.64951 17.25 2.64951C24.9867 2.64951 31.35 9.07906 31.35 17.1245ZM33.75 17.1245C33.75 29.2568 17.25 45.2495 17.25 45.2495C17.25 45.2495 0.749999 29.2568 0.749999 17.1245C0.749998 7.80471 8.1373 0.249511 17.25 0.249511C26.3627 0.249511 33.75 7.80471 33.75 17.1245ZM21.6 17.4995C21.6 19.9019 19.6524 21.8495 17.25 21.8495C14.8476 21.8495 12.9 19.902 12.9 17.4995C12.9 15.0971 14.8476 13.1495 17.25 13.1495C19.6524 13.1495 21.6 15.0971 21.6 17.4995ZM24 17.4995C24 21.2274 20.9779 24.2495 17.25 24.2495C13.5221 24.2495 10.5 21.2274 10.5 17.4995C10.5 13.7716 13.5221 10.7495 17.25 10.7495C20.9779 10.7495 24 13.7716 24 17.4995Z" fill="white"/>
</svg>
