<svg width="17" height="16" viewBox="0 0 17 16" fill="none" xmlns="http://www.w3.org/2000/svg">
<g clip-path="url(#clip0_2865_2447)">
<g clip-path="url(#clip1_2865_2447)">
<path d="M13.7266 2.65006C10.8566 -0.219941 6.19657 -0.219941 3.32657 2.65006C0.456572 5.52006 0.456572 10.1801 3.32657 13.0501C6.19657 15.9201 10.8566 15.9201 13.7266 13.0501C15.1066 11.6701 15.8866 9.80006 15.8766 7.85006C15.8766 5.90006 15.1066 4.03006 13.7266 2.65006V2.65006ZM8.52657 14.7301C4.72657 14.7301 1.65657 11.6501 1.65657 7.86006C1.65657 4.07006 4.72657 0.980058 8.52657 0.980058C12.3266 0.980058 15.3966 4.06006 15.3966 7.85006C15.3966 11.6501 12.3166 14.7201 8.52657 14.7201V14.7301ZM12.8566 7.62006H8.76657V2.31006C8.76657 2.18006 8.65657 2.07006 8.52657 2.07006C8.39657 2.07006 8.28657 2.18006 8.28657 2.31006V7.86006C8.28657 7.99006 8.39657 8.10006 8.52657 8.10006H12.8566C12.9866 8.10006 13.0966 7.99006 13.0966 7.86006C13.0966 7.73006 12.9866 7.62006 12.8566 7.62006V7.62006Z" stroke="#999999"/>
</g>
</g>
<defs>
<clipPath id="clip0_2865_2447">
<rect width="16" height="16" fill="white" transform="translate(0.666565)"/>
</clipPath>
<clipPath id="clip1_2865_2447">
<rect width="15.71" height="15.71" fill="white" transform="translate(0.666565)"/>
</clipPath>
</defs>
</svg>
