<svg width="28" height="33" viewBox="0 0 28 33" fill="none" xmlns="http://www.w3.org/2000/svg">
<path fill-rule="evenodd" clip-rule="evenodd" d="M22.2561 3.67874L19.1811 0.75L16.1686 3.61835L16.1061 3.68478V4.72343L18.7936 2.16908V5.65338L18.7999 5.85869H19.5686V2.16908L22.2561 4.72343V3.67874ZM27.9875 32.8273H26.7375V9.0532C26.7375 8.98593 26.7099 8.92142 26.6606 8.87386C26.6114 8.8263 26.5446 8.79957 26.475 8.79957H1.76249C1.69287 8.79957 1.62611 8.8263 1.57689 8.87386C1.52766 8.92142 1.5 8.98593 1.5 9.0532V32.8273H0.25V9.0532C0.251645 8.66611 0.41152 8.29533 0.694813 8.02162C0.978106 7.74791 1.36186 7.59343 1.76249 7.59184H26.475C26.8762 7.59184 27.2609 7.74581 27.5445 8.01986C27.8281 8.29392 27.9875 8.66562 27.9875 9.0532V32.8273ZM9.4437 0.9795V4.46381L12.1312 1.90341V2.9481L12.0624 3.00849L9.0562 5.87685L5.9812 2.9481V1.90341L8.66245 4.46381V0.768147H9.43744L9.4437 0.9795ZM18.7125 16.052C19.1773 16.052 19.6316 15.9188 20.0181 15.6693C20.4046 15.4198 20.7057 15.0652 20.8836 14.6504C21.0615 14.2355 21.108 13.7789 21.0174 13.3385C20.9267 12.8981 20.7029 12.4935 20.3742 12.1759C20.0455 11.8584 19.6268 11.6422 19.171 11.5546C18.7151 11.4669 18.2426 11.5119 17.8132 11.6838C17.3838 11.8556 17.0168 12.1466 16.7585 12.52C16.5003 12.8934 16.3625 13.3324 16.3625 13.7815C16.3641 14.3831 16.6123 14.9597 17.0526 15.3852C17.493 15.8107 18.0898 16.0504 18.7125 16.052ZM17.3687 13.7815C17.3687 13.5232 17.4481 13.2708 17.5967 13.0562C17.7453 12.8415 17.9565 12.6744 18.2036 12.5758C18.4506 12.4773 18.7224 12.4518 18.9844 12.5026C19.2465 12.5534 19.487 12.6783 19.6756 12.8613C19.8641 13.0443 19.9922 13.2773 20.0436 13.5307C20.095 13.7841 20.0673 14.0466 19.9642 14.2848C19.8611 14.523 19.6871 14.7263 19.4642 14.8689C19.2414 15.0115 18.9798 15.087 18.7125 15.0858C18.3556 15.0842 18.0138 14.9461 17.762 14.7016C17.5101 14.4572 17.3687 14.1263 17.3687 13.7815ZM21.7812 22.9058L23.1249 26.3056C23.1482 26.3918 23.1501 26.4821 23.1306 26.5692C23.1111 26.6562 23.0706 26.7376 23.0124 26.8068C22.9598 26.8778 22.8903 26.9357 22.8099 26.9756C22.7295 27.0155 22.6403 27.0363 22.5499 27.0363H20.4312V32.9058H19.4312V26.0882H21.9311L20.7499 23.0689V18.9928C20.7483 18.6233 20.5956 18.2694 20.3252 18.0082C20.0548 17.7469 19.6886 17.5994 19.3062 17.5979H18.0562C17.6738 17.5994 17.3075 17.7469 17.0371 18.0082C16.7667 18.2694 16.6141 18.6233 16.6124 18.9928V23.093L15.4374 26.0701H17.9374V32.8877H16.9374V27.0363H14.8312C14.7392 27.0361 14.6487 27.0146 14.5672 26.9736C14.4856 26.9326 14.4154 26.8734 14.3624 26.8008C14.3127 26.7275 14.2812 26.6442 14.2703 26.5572C14.2595 26.4703 14.2696 26.3821 14.2999 26.2995L15.6437 22.9058V18.9928C15.6453 18.3671 15.9033 17.7674 16.3612 17.325C16.8192 16.8825 17.4398 16.6333 18.0874 16.6317H19.3374C19.985 16.6333 20.6056 16.8825 21.0636 17.325C21.5215 17.7674 21.7795 18.3671 21.7812 18.9928V22.9058ZM8.97498 16.052C9.44003 16.0532 9.895 15.921 10.2823 15.6723C10.6696 15.4235 10.9717 15.0693 11.1506 14.6545C11.3294 14.2398 11.3768 13.783 11.2868 13.3422C11.1969 12.9014 10.9736 12.4962 10.6451 12.1781C10.3167 11.8599 9.89802 11.6431 9.44199 11.555C8.98597 11.4669 8.51314 11.5115 8.08337 11.6832C7.6536 11.8549 7.28621 12.1459 7.02771 12.5194C6.76921 12.8929 6.63123 13.3321 6.63123 13.7814C6.63122 14.3826 6.87796 14.9592 7.31732 15.3848C7.75668 15.8105 8.3528 16.0504 8.97498 16.052ZM7.63123 13.7814C7.63123 13.5232 7.71056 13.2708 7.85918 13.0562C8.0078 12.8415 8.21901 12.6744 8.46606 12.5758C8.7131 12.4773 8.98487 12.4518 9.24691 12.5026C9.50895 12.5534 9.74949 12.6783 9.93804 12.8613C10.1266 13.0443 10.2547 13.2773 10.306 13.5307C10.3574 13.7841 10.3298 14.0466 10.2267 14.2848C10.1235 14.523 9.94953 14.7263 9.7267 14.8689C9.50388 15.0115 9.24225 15.087 8.97498 15.0858C8.61802 15.0842 8.27625 14.9461 8.02443 14.7016C7.77261 14.4572 7.63123 14.1263 7.63123 13.7814ZM7.0749 16.6317H10.9312C11.444 16.6332 11.9356 16.83 12.2994 17.1792C12.6632 17.5285 12.87 18.0021 12.8749 18.4976V25.1401C12.8733 25.3815 12.7733 25.6125 12.5967 25.7831C12.4201 25.9538 12.181 26.0504 11.9312 26.052H10.8374V32.8877H9.83742V25.0737H11.8624V18.5097C11.8624 18.2711 11.7643 18.0422 11.5897 17.8735C11.415 17.7047 11.1782 17.6099 10.9312 17.6099H7.08116C6.8336 17.6099 6.59609 17.7045 6.42045 17.8731C6.24481 18.0417 6.14531 18.2705 6.14366 18.5097V25.0737H8.18117V32.9119H7.18116V26.0761H6.08741C5.83379 26.0761 5.59056 25.9788 5.41123 25.8055C5.2319 25.6322 5.13116 25.3972 5.13116 25.1522V18.5097C5.13116 18.0116 5.33594 17.5339 5.70046 17.1817C6.06499 16.8295 6.55939 16.6317 7.0749 16.6317Z" fill="#393734"/>
</svg>
