<svg width="53" height="56" viewBox="0 0 53 56" fill="none" xmlns="http://www.w3.org/2000/svg">
<g clip-path="url(#clip0_3257_1093)">
<path d="M52.25 62.9747H49.8951V16.6317C49.8951 16.3569 49.6694 16.1313 49.3946 16.1313H2.84554C2.5708 16.1313 2.34512 16.3569 2.34512 16.6219V62.9747H0V16.6317C0 15.0617 1.27559 13.7861 2.84554 13.7861H49.4045C50.9744 13.7861 52.2598 15.0617 52.2598 16.6415V62.9747H52.25Z" fill="white"/>
<path d="M16.2688 29.9955C18.7316 29.9955 20.7333 27.9938 20.7333 25.531C20.7333 23.0681 18.7316 21.0664 16.2688 21.0664C13.8059 21.0664 11.8042 23.0681 11.8042 25.531C11.8042 27.9938 13.8059 29.9955 16.2688 29.9955ZM13.7078 25.531C13.7078 24.118 14.8558 22.97 16.2688 22.97C17.6817 22.97 18.8297 24.118 18.8297 25.531C18.8297 26.9439 17.6817 28.0919 16.2688 28.0919C14.8558 28.0919 13.7078 26.9439 13.7078 25.531Z" fill="white"/>
<path d="M19.9288 30.9863H12.5991C10.5582 30.9863 8.8999 32.6446 8.8999 34.6855V48.2362C8.8999 48.9427 9.47882 49.5216 10.1853 49.5216H12.7855V62.9741H14.6891V47.6082H10.8231V34.6953C10.8231 33.7141 11.6179 32.9193 12.5991 32.9193H19.9288C20.91 32.9193 21.7048 33.7141 21.7048 34.6953V47.6082H17.8486V62.9741H19.7522V49.5216H22.3328C23.0491 49.5216 23.628 48.9427 23.628 48.2264V34.6953C23.628 32.6544 21.9698 30.9961 19.9288 30.9961V30.9863Z" fill="white"/>
<path d="M34.9123 29.9955C37.3752 29.9955 39.3769 27.9938 39.3769 25.531C39.3769 23.0681 37.3752 21.0664 34.9123 21.0664C32.4494 21.0664 30.4478 23.0681 30.4478 25.531C30.4478 27.9938 32.4494 29.9955 34.9123 29.9955ZM32.3513 25.531C32.3513 24.118 33.4994 22.97 34.9123 22.97C36.3253 22.97 37.4733 24.118 37.4733 25.531C37.4733 26.9439 36.3253 28.0919 34.9123 28.0919C33.4994 28.0919 32.3513 26.9439 32.3513 25.531Z" fill="white"/>
<path d="M44.1357 50.0122L40.7407 43.3203V35.6275C40.7407 33.0666 38.6605 30.9766 36.0897 30.9766H33.7348C31.1738 30.9766 29.0838 33.0568 29.0838 35.6275V43.3203L25.6789 50.0024C25.5514 50.336 25.6004 50.6991 25.7967 50.9935C25.9929 51.2878 26.3266 51.4546 26.6798 51.4546H31.5368V62.9644H33.4404V49.5609H27.9063L30.9677 43.7128V35.6374C30.9775 34.1263 32.2139 32.8899 33.725 32.8899H36.0799C37.591 32.8899 38.8273 34.1263 38.8273 35.6374V43.6637L41.8985 49.5707H36.3644V62.9742H38.268V51.4644H43.1447C43.4979 51.4644 43.8217 51.2976 44.018 51.0033C44.2142 50.7187 44.2633 50.3459 44.1357 50.0122Z" fill="white"/>
<path d="M17.1713 8.09465V0.5H15.9252V8.08484L10.5972 2.75681V4.53282L16.1901 10.116L16.5434 10.4986L22.5092 4.53282V2.75681L17.1713 8.09465Z" fill="white"/>
<path d="M35.0786 2.90399V10.4986H36.3247V2.90399L41.6527 8.23202V6.46582L36.0598 0.872864L35.7065 0.5L29.7407 6.46582V8.24183L35.0786 2.90399Z" fill="white"/>
</g>
<defs>
<clipPath id="clip0_3257_1093">
<rect width="52.25" height="62.4743" fill="white" transform="translate(0 0.5)"/>
</clipPath>
</defs>
</svg>
