<svg width="40" height="40" viewBox="0 0 40 40" fill="none" xmlns="http://www.w3.org/2000/svg">
<path fill-rule="evenodd" clip-rule="evenodd" d="M16.0389 10.7125C15.5358 10.7125 15.044 10.5633 14.6257 10.2838C14.2074 10.0043 13.8813 9.60701 13.6888 9.1422C13.4963 8.67739 13.4459 8.16593 13.5441 7.67249C13.6422 7.17905 13.8845 6.7258 14.2402 6.37005C14.596 6.0143 15.0492 5.77203 15.5427 5.67388C16.0361 5.57573 16.5476 5.6261 17.0124 5.81863C17.4772 6.01116 17.8745 6.3372 18.154 6.75552C18.4335 7.17383 18.5827 7.66564 18.5827 8.16875C18.581 8.84289 18.3125 9.48894 17.8358 9.96563C17.3591 10.4423 16.7131 10.7108 16.0389 10.7125ZM16.0389 6.875C15.783 6.875 15.5329 6.95088 15.3202 7.09304C15.1074 7.2352 14.9416 7.43725 14.8437 7.67365C14.7457 7.91005 14.7201 8.17018 14.77 8.42115C14.82 8.67211 14.9432 8.90264 15.1241 9.08357C15.305 9.2645 15.5356 9.38772 15.7865 9.43764C16.0375 9.48756 16.2976 9.46194 16.534 9.36402C16.7704 9.2661 16.9725 9.10027 17.1146 8.88752C17.2568 8.67476 17.3327 8.42463 17.3327 8.16875C17.3327 7.82562 17.1964 7.49656 16.9537 7.25393C16.7111 7.01131 16.382 6.875 16.0389 6.875ZM12.3638 33.9125H7.80134C6.87497 33.8693 6.00115 33.4696 5.3626 32.7971C4.72405 32.1246 4.37021 31.2312 4.37505 30.3039C4.37989 29.3765 4.74305 28.4869 5.38859 27.8211C6.03412 27.1552 6.91206 26.7648 7.83884 26.7312H9.87634L27.5076 11.2125C27.6106 11.12 27.7442 11.0689 27.8826 11.0687H32.0826C32.5513 11.0741 33.0143 11.1717 33.4452 11.3559C33.8761 11.5402 34.2666 11.8076 34.5942 12.1427C34.9218 12.4779 35.1802 12.8743 35.3546 13.3093C35.529 13.7443 35.6161 14.2094 35.6107 14.6781C35.6054 15.1468 35.5078 15.6098 35.3235 16.0407C35.1392 16.4717 34.8719 16.8621 34.5367 17.1897C34.2016 17.5173 33.8052 17.7757 33.3701 17.9501C32.9351 18.1245 32.47 18.2116 32.0013 18.2062H29.4451L12.7513 33.7687C12.6451 33.8641 12.5066 33.9155 12.3638 33.9125ZM7.83884 27.8562C7.20639 27.8881 6.61036 28.1617 6.17398 28.6206C5.73761 29.0796 5.49427 29.6886 5.49427 30.3219C5.49427 30.9551 5.73761 31.5642 6.17398 32.0231C6.61036 32.482 7.20639 32.7556 7.83884 32.7875H12.1763L28.8701 17.2187C28.9751 17.1246 29.1104 17.0714 29.2513 17.0687H32.0201C32.341 17.0728 32.6596 17.0137 32.9577 16.8947C33.2557 16.7757 33.5274 16.5991 33.7572 16.3751C33.9871 16.151 34.1705 15.884 34.2971 15.589C34.4237 15.2941 34.491 14.9771 34.4951 14.6562C34.4992 14.3353 34.4401 14.0167 34.321 13.7187C34.202 13.4206 34.0255 13.1489 33.8014 12.9191C33.5774 12.6893 33.3103 12.5058 33.0154 12.3792C32.7205 12.2526 32.4035 12.1853 32.0826 12.1812H28.1263L10.4951 27.7312C10.4459 27.7798 10.3872 27.8177 10.3227 27.8424C10.2581 27.8672 10.1891 27.8782 10.1201 27.875L7.83884 27.8562ZM13.9392 13.0191C13.7669 13.1914 13.6701 13.4251 13.6701 13.6688V21.9375L12.5201 22.9563V13.6688C12.5218 13.1206 12.7403 12.5954 13.1279 12.2078C13.5155 11.8202 14.0407 11.6017 14.5889 11.6H17.5514C18.0996 11.6017 18.6248 11.8202 19.0124 12.2078C19.4 12.5954 19.6185 13.1206 19.6201 13.6688V16.6875L18.4701 17.7063V13.6688C18.4701 13.4251 18.3733 13.1914 18.201 13.0191C18.0287 12.8468 17.7951 12.75 17.5514 12.75H14.5889C14.3452 12.75 14.1115 12.8468 13.9392 13.0191Z" fill="#393734"/>
</svg>
