<svg width="60" height="60" viewBox="0 0 60 60" fill="none" xmlns="http://www.w3.org/2000/svg">
<g clip-path="url(#clip0_3257_1047)">
<g clip-path="url(#clip1_3257_1047)">
<path d="M16.5413 60.171H8.356C4.84667 60.1244 2 57.2404 2 53.7404C2 50.2404 4.884 47.3097 8.43067 47.3097C8.496 47.3097 11.0813 47.3097 12.08 47.319L43.6733 19.459C43.86 19.3004 44.0933 19.207 44.336 19.207H51.8587C55.3213 19.3937 57.9907 22.1937 57.9907 25.5724C57.9907 28.951 55.2373 31.9004 51.7187 31.9937L47.136 32.0124L17.2227 59.9004C17.036 60.0777 16.7933 60.171 16.532 60.171H16.5413ZM8.43067 49.3257C5.99467 49.3257 4.016 51.3044 4.016 53.7404C4.016 56.1764 5.96667 58.127 8.37467 58.155H16.14L46.0627 30.267C46.2493 30.0897 46.492 29.9964 46.744 29.9964L51.7 29.9777C54.0987 29.9217 55.984 27.9804 55.984 25.5724C55.984 23.1644 54.1547 21.3537 51.812 21.223H44.7187L13.1253 49.083C12.9387 49.2417 12.7147 49.363 12.4533 49.335C12.4533 49.335 8.51467 49.3257 8.43067 49.3257Z" fill="white"/>
<path d="M23.1211 18.6093C20.6104 18.6093 18.5664 16.5653 18.5664 14.0547C18.5664 11.544 20.6104 9.5 23.1211 9.5C25.6317 9.5 27.6757 11.544 27.6757 14.0547C27.6757 16.5653 25.6317 18.6093 23.1211 18.6093ZM23.1211 11.74C21.8424 11.74 20.8064 12.776 20.8064 14.0547C20.8064 15.3333 21.8424 16.3693 23.1211 16.3693C24.3997 16.3693 25.4357 15.3333 25.4357 14.0547C25.4357 12.776 24.3997 11.74 23.1211 11.74Z" fill="white"/>
<path d="M18.8278 23.9016C18.8278 22.9963 19.5651 22.259 20.4705 22.259H25.7905C26.6958 22.259 27.4331 22.9963 27.4331 23.9016V31.135L29.4958 29.315V23.9016C29.4958 21.867 27.8251 20.1963 25.7905 20.1963H20.4705C18.4358 20.1963 16.7651 21.867 16.7651 23.9016V40.5523L18.8278 38.7323V23.9016Z" fill="white"/>
</g>
</g>
<defs>
<clipPath id="clip0_3257_1047">
<rect width="60" height="60" fill="white"/>
</clipPath>
<clipPath id="clip1_3257_1047">
<rect width="56" height="50.6707" fill="white" transform="translate(2 9.5)"/>
</clipPath>
</defs>
</svg>
