<svg width="47" height="47" viewBox="0 0 47 47" fill="none" xmlns="http://www.w3.org/2000/svg">
<path d="M45.3188 7.82821H26.378L32.2454 2.45321L30.6502 0.712402L23.3125 7.43289L15.9817 0.712402L14.3865 2.45321L20.2539 7.82821H1.29231C0.640378 7.82821 0.113281 8.35531 0.113281 9.00724V17.5032C0.113281 18.1551 0.640378 18.6822 1.29231 18.6822H2.42973V45.3076C2.42973 45.9595 2.95683 46.4866 3.60877 46.4866H43.1965C43.8484 46.4866 44.3755 45.9595 44.3755 45.3076V18.6822H45.3188C45.9707 18.6822 46.4978 18.1551 46.4978 17.5032V9.00724C46.4978 8.35531 45.9707 7.82821 45.3188 7.82821ZM44.1397 16.3242H24.4984V10.1863H44.1397V16.3242ZM2.47135 10.1863H22.1404V16.3242H2.47135V10.1863ZM4.7878 18.6822H22.1404V44.1285H4.7878V18.6822ZM42.0175 44.1285H24.4984V18.6822H42.0175V44.1285Z" fill="#67615D" stroke="#67615D" stroke-width="0.25"/>
</svg>
