<svg width="47" height="47" viewBox="0 0 47 47" fill="none" xmlns="http://www.w3.org/2000/svg">
<path d="M45.3183 7.82882H26.3775L32.2449 2.45382L30.6497 0.713013L23.312 7.4335L15.9812 0.713013L14.386 2.45382L20.2534 7.82882H1.29183C0.63989 7.82882 0.112793 8.35592 0.112793 9.00785V17.5038C0.112793 18.1558 0.63989 18.6829 1.29183 18.6829H2.42924V45.3082C2.42924 45.9601 2.95634 46.4872 3.60828 46.4872H43.196C43.848 46.4872 44.375 45.9601 44.375 45.3082V18.6829H45.3183C45.9702 18.6829 46.4973 18.1558 46.4973 17.5038V9.00785C46.4973 8.35592 45.9702 7.82882 45.3183 7.82882ZM44.1392 16.3248H24.498V10.1869H44.1392V16.3248ZM2.47086 10.1869H22.1399V16.3248H2.47086V10.1869ZM4.78731 18.6829H22.1399V44.1291H4.78731V18.6829ZM42.017 44.1291H24.498V18.6829H42.017V44.1291Z" fill="white"/>
</svg>
