<svg width="27" height="26" viewBox="0 0 27 26" fill="none" xmlns="http://www.w3.org/2000/svg">
<path fill-rule="evenodd" clip-rule="evenodd" d="M13.825 25.5242C11.2637 25.5242 8.75999 24.7903 6.63037 23.4155C4.50075 22.0407 2.84092 20.0865 1.86076 17.8002C0.88061 15.514 0.624158 12.9982 1.12384 10.5711C1.62352 8.14399 2.85688 5.91456 4.66797 4.16471C6.47906 2.41487 8.78653 1.2232 11.2986 0.740423C13.8106 0.257642 16.4144 0.505417 18.7808 1.45243C21.1471 2.39944 23.1696 4.00315 24.5925 6.06075C26.0155 8.11835 26.775 10.5374 26.775 13.0121C26.7717 16.3295 25.4063 19.5102 22.9784 21.8559C20.5505 24.2017 17.2585 25.521 13.825 25.5242ZM13.825 1.71378C11.5107 1.71378 9.24837 2.37692 7.32418 3.61932C5.39999 4.86173 3.90038 6.62758 3.01502 8.69353C2.12965 10.7595 1.89832 13.0327 2.35028 15.2257C2.80223 17.4187 3.91717 19.4329 5.55407 21.0136C7.19097 22.5943 9.27629 23.6705 11.5463 24.106C13.8163 24.5415 16.1689 24.3168 18.3067 23.4602C20.4445 22.6037 22.2714 21.1539 23.5562 19.2941C24.8411 17.4343 25.5262 15.2481 25.525 13.0121C25.5275 11.5258 25.2267 10.0536 24.6399 8.67962C24.0531 7.30568 23.1918 6.05696 22.1052 5.00485C21.0186 3.95274 19.728 3.11789 18.3072 2.548C16.8864 1.97811 15.3633 1.68437 13.825 1.68357V1.71378ZM13.825 9.17749C13.3481 9.17629 12.8823 9.03858 12.4864 8.78173C12.0905 8.52489 11.7822 8.16043 11.6006 7.73441C11.4189 7.30838 11.3721 6.83991 11.4659 6.38815C11.5596 5.9364 11.7899 5.52163 12.1276 5.19625C12.4652 4.87087 12.8951 4.64946 13.3629 4.56001C13.8307 4.47056 14.3154 4.51707 14.7559 4.69367C15.1964 4.87027 15.5728 5.16903 15.8376 5.55222C16.1024 5.9354 16.2438 6.38582 16.2438 6.84658C16.2438 7.15319 16.1811 7.45678 16.0595 7.73997C15.9379 8.02317 15.7596 8.2804 15.5349 8.49692C15.3103 8.71345 15.0436 8.88501 14.7501 9.00179C14.4567 9.11857 14.1423 9.17828 13.825 9.17749ZM13.825 5.72338C13.5953 5.72457 13.3712 5.79147 13.1809 5.91561C12.9905 6.03975 12.8425 6.21558 12.7554 6.42092C12.6684 6.62626 12.6463 6.8519 12.6918 7.06938C12.7374 7.28686 12.8486 7.48641 13.0114 7.64289C13.1743 7.79937 13.3814 7.90575 13.6067 7.9486C13.8321 7.99145 14.0655 7.96886 14.2775 7.88368C14.4896 7.79849 14.6708 7.65453 14.7983 7.46996C14.9257 7.28538 14.9937 7.06847 14.9938 6.84658C14.9938 6.69857 14.9635 6.55202 14.9047 6.41535C14.8459 6.27869 14.7597 6.15459 14.6511 6.05021C14.5424 5.94583 14.4136 5.86323 14.2718 5.80714C14.13 5.75105 13.9782 5.72259 13.825 5.72338ZM12.1437 21.454H15.5125C15.6783 21.454 15.8372 21.3904 15.9544 21.2772C16.0717 21.1639 16.1375 21.0103 16.1375 20.8502V10.7294C16.1375 10.5692 16.0717 10.4156 15.9544 10.3024C15.8372 10.1892 15.6783 10.1255 15.5125 10.1255H12.1437C11.978 10.1255 11.819 10.1892 11.7018 10.3024C11.5846 10.4156 11.5187 10.5692 11.5187 10.7294V20.8502C11.5187 21.0103 11.5846 21.1639 11.7018 21.2772C11.819 21.3904 11.978 21.454 12.1437 21.454ZM14.8875 20.2463H12.7688V11.3333H14.8875V20.2463Z" fill="#393734"/>
</svg>
