<svg width="35" height="52" viewBox="0 0 35 52" fill="none" xmlns="http://www.w3.org/2000/svg">
<mask id="path-1-outside-1_486_2520" maskUnits="userSpaceOnUse" x="-0.645508" y="0.0307617" width="35" height="52" fill="black">
<rect fill="white" x="-0.645508" y="0.0307617" width="35" height="52"/>
<path fill-rule="evenodd" clip-rule="evenodd" d="M32.3617 1.05983C32.7501 0.976606 33.1593 1.0737 33.4714 1.33032C33.7835 1.57999 33.9638 1.96144 33.9638 2.3637V50.7803H31.3006V4.15999C28.9703 5.03386 24.9269 7.23241 24.9269 11.9763V26.9777H29.1714V29.641H23.5884C22.8532 29.641 22.2567 29.0445 22.2567 28.3093V11.9763C22.2567 5.00612 28.8663 1.78806 32.3617 1.05983ZM14.2948 17.8784C14.2948 20.2226 12.3876 22.1298 9.96014 22.1298L8.65627 22.2131L7.26917 22.1298C4.92498 22.1298 3.01772 20.2226 3.01772 17.8784V2.3637H0.354492V17.8784C0.354492 21.6929 3.45465 24.7931 7.18594 24.7931H7.33159V50.9676H9.99481V24.8H10.0503C13.8648 24.8 16.965 21.6929 16.965 17.8784V2.3637H14.3017V17.8784H14.2948ZM9.98788 2.3637H7.32465V17.171H9.98788V2.3637Z"/>
</mask>
<path fill-rule="evenodd" clip-rule="evenodd" d="M32.3617 1.05983C32.7501 0.976606 33.1593 1.0737 33.4714 1.33032C33.7835 1.57999 33.9638 1.96144 33.9638 2.3637V50.7803H31.3006V4.15999C28.9703 5.03386 24.9269 7.23241 24.9269 11.9763V26.9777H29.1714V29.641H23.5884C22.8532 29.641 22.2567 29.0445 22.2567 28.3093V11.9763C22.2567 5.00612 28.8663 1.78806 32.3617 1.05983ZM14.2948 17.8784C14.2948 20.2226 12.3876 22.1298 9.96014 22.1298L8.65627 22.2131L7.26917 22.1298C4.92498 22.1298 3.01772 20.2226 3.01772 17.8784V2.3637H0.354492V17.8784C0.354492 21.6929 3.45465 24.7931 7.18594 24.7931H7.33159V50.9676H9.99481V24.8H10.0503C13.8648 24.8 16.965 21.6929 16.965 17.8784V2.3637H14.3017V17.8784H14.2948ZM9.98788 2.3637H7.32465V17.171H9.98788V2.3637Z" fill="#67615D"/>
<path d="M33.4714 1.33032L33.3444 1.48481L33.3465 1.48649L33.4714 1.33032ZM32.3617 1.05983L32.4025 1.25563L32.4037 1.25539L32.3617 1.05983ZM33.9638 50.7803V50.9803H34.1638V50.7803H33.9638ZM31.3006 50.7803H31.1006V50.9803H31.3006V50.7803ZM31.3006 4.15999H31.5006V3.87139L31.2304 3.97273L31.3006 4.15999ZM24.9269 26.9777H24.7269V27.1777H24.9269V26.9777ZM29.1714 26.9777H29.3714V26.7777H29.1714V26.9777ZM29.1714 29.641V29.841H29.3714V29.641H29.1714ZM9.96014 22.1298V21.9294L9.9474 21.9302L9.96014 22.1298ZM14.2948 17.8784V17.6784H14.0948V17.8784H14.2948ZM8.65627 22.2131L8.64429 22.4127L8.65665 22.4134L8.66901 22.4127L8.65627 22.2131ZM7.26917 22.1298L7.28117 21.9298H7.26917V22.1298ZM3.01772 2.3637H3.21772V2.1637H3.01772V2.3637ZM0.354492 2.3637V2.1637H0.154492V2.3637H0.354492ZM7.33159 24.7931H7.53159V24.5931H7.33159V24.7931ZM7.33159 50.9676H7.13159V51.1676H7.33159V50.9676ZM9.99481 50.9676V51.1676H10.1948V50.9676H9.99481ZM9.99481 24.8V24.6H9.79481V24.8H9.99481ZM16.965 2.3637H17.165V2.1637H16.965V2.3637ZM14.3017 2.3637V2.1637H14.1017V2.3637H14.3017ZM14.3017 17.8784V18.0784H14.5017V17.8784H14.3017ZM7.32465 2.3637V2.1637H7.12465V2.3637H7.32465ZM9.98788 2.3637H10.1879V2.1637H9.98788V2.3637ZM7.32465 17.171H7.12465V17.371H7.32465V17.171ZM9.98788 17.171V17.371H10.1879V17.171H9.98788ZM33.5984 1.17583C33.239 0.880285 32.7675 0.768336 32.3198 0.864271L32.4037 1.25539C32.7327 1.18488 33.0797 1.26712 33.3444 1.4848L33.5984 1.17583ZM34.1638 2.3637C34.1638 1.90193 33.9569 1.46254 33.5964 1.17414L33.3465 1.48649C33.6102 1.69744 33.7638 2.02096 33.7638 2.3637H34.1638ZM34.1638 50.7803V2.3637H33.7638V50.7803H34.1638ZM31.3006 50.9803H33.9638V50.5803H31.3006V50.9803ZM31.1006 4.15999V50.7803H31.5006V4.15999H31.1006ZM25.1269 11.9763C25.1269 7.3707 29.0498 5.21763 31.3708 4.34726L31.2304 3.97273C28.8907 4.8501 24.7269 7.09413 24.7269 11.9763H25.1269ZM25.1269 26.9777V11.9763H24.7269V26.9777H25.1269ZM29.1714 26.7777H24.9269V27.1777H29.1714V26.7777ZM29.3714 29.641V26.9777H28.9714V29.641H29.3714ZM23.5884 29.841H29.1714V29.441H23.5884V29.841ZM22.0567 28.3093C22.0567 29.155 22.7427 29.841 23.5884 29.841V29.441C22.9637 29.441 22.4567 28.9341 22.4567 28.3093H22.0567ZM22.0567 11.9763V28.3093H22.4567V11.9763H22.0567ZM32.321 0.864036C30.5466 1.2337 27.9883 2.23271 25.8693 4.02462C23.7459 5.82023 22.0567 8.41946 22.0567 11.9763H22.4567C22.4567 8.56295 24.0723 6.06806 26.1276 4.33005C28.1872 2.58832 30.6814 1.61419 32.4025 1.25563L32.321 0.864036ZM9.96014 22.3298C12.4955 22.3298 14.4948 20.3356 14.4948 17.8784H14.0948C14.0948 20.1096 12.2796 21.9298 9.96014 21.9298V22.3298ZM8.66901 22.4127L9.97288 22.3294L9.9474 21.9302L8.64353 22.0135L8.66901 22.4127ZM7.25719 22.3295L8.64429 22.4127L8.66825 22.0134L7.28115 21.9302L7.25719 22.3295ZM2.81772 17.8784C2.81772 20.333 4.81452 22.3298 7.26917 22.3298V21.9298C5.03543 21.9298 3.21772 20.1121 3.21772 17.8784H2.81772ZM2.81772 2.3637V17.8784H3.21772V2.3637H2.81772ZM0.354492 2.5637H3.01772V2.1637H0.354492V2.5637ZM0.554492 17.8784V2.3637H0.154492V17.8784H0.554492ZM7.18594 24.5931C3.56668 24.5931 0.554492 21.584 0.554492 17.8784H0.154492C0.154492 21.8018 3.34263 24.9931 7.18594 24.9931V24.5931ZM7.33159 24.5931H7.18594V24.9931H7.33159V24.5931ZM7.53159 50.9676V24.7931H7.13159V50.9676H7.53159ZM9.99481 50.7676H7.33159V51.1676H9.99481V50.7676ZM9.79481 24.8V50.9676H10.1948V24.8H9.79481ZM10.0503 24.6H9.99481V25H10.0503V24.6ZM16.765 17.8784C16.765 21.5827 13.7541 24.6 10.0503 24.6V25C13.9755 25 17.165 21.8031 17.165 17.8784H16.765ZM16.765 2.3637V17.8784H17.165V2.3637H16.765ZM14.3017 2.5637H16.965V2.1637H14.3017V2.5637ZM14.5017 17.8784V2.3637H14.1017V17.8784H14.5017ZM14.2948 18.0784H14.3017V17.6784H14.2948V18.0784ZM7.32465 2.5637H9.98788V2.1637H7.32465V2.5637ZM7.52465 17.171V2.3637H7.12465V17.171H7.52465ZM9.98788 16.971H7.32465V17.371H9.98788V16.971ZM9.78788 2.3637V17.171H10.1879V2.3637H9.78788Z" fill="#67615D" mask="url(#path-1-outside-1_486_2520)"/>
</svg>
