<svg width="35" height="52" viewBox="0 0 35 52" fill="none" xmlns="http://www.w3.org/2000/svg">
<mask id="path-1-outside-1_510_12099" maskUnits="userSpaceOnUse" x="-0.645508" y="0.0310059" width="35" height="52" fill="black">
<rect fill="white" x="-0.645508" y="0.0310059" width="35" height="52"/>
<path fill-rule="evenodd" clip-rule="evenodd" d="M32.3617 1.06008C32.7501 0.97685 33.1593 1.07395 33.4714 1.33056C33.7835 1.58024 33.9638 1.96169 33.9638 2.36395V50.7806H31.3006V4.16024C28.9703 5.03411 24.9269 7.23266 24.9269 11.9765V26.978H29.1714V29.6412H23.5884C22.8532 29.6412 22.2567 29.0448 22.2567 28.3096V11.9765C22.2567 5.00637 28.8663 1.7883 32.3617 1.06008ZM14.2948 17.8786C14.2948 20.2228 12.3876 22.1301 9.96014 22.1301L8.65627 22.2133L7.26917 22.1301C4.92498 22.1301 3.01772 20.2228 3.01772 17.8786V2.36395H0.354492V17.8786C0.354492 21.6931 3.45465 24.7933 7.18594 24.7933H7.33159V50.9678H9.99481V24.8002H10.0503C13.8648 24.8002 16.965 21.6931 16.965 17.8786V2.36395H14.3017V17.8786H14.2948ZM9.98788 2.36395H7.32465V17.1712H9.98788V2.36395Z"/>
</mask>
<path fill-rule="evenodd" clip-rule="evenodd" d="M32.3617 1.06008C32.7501 0.97685 33.1593 1.07395 33.4714 1.33056C33.7835 1.58024 33.9638 1.96169 33.9638 2.36395V50.7806H31.3006V4.16024C28.9703 5.03411 24.9269 7.23266 24.9269 11.9765V26.978H29.1714V29.6412H23.5884C22.8532 29.6412 22.2567 29.0448 22.2567 28.3096V11.9765C22.2567 5.00637 28.8663 1.7883 32.3617 1.06008ZM14.2948 17.8786C14.2948 20.2228 12.3876 22.1301 9.96014 22.1301L8.65627 22.2133L7.26917 22.1301C4.92498 22.1301 3.01772 20.2228 3.01772 17.8786V2.36395H0.354492V17.8786C0.354492 21.6931 3.45465 24.7933 7.18594 24.7933H7.33159V50.9678H9.99481V24.8002H10.0503C13.8648 24.8002 16.965 21.6931 16.965 17.8786V2.36395H14.3017V17.8786H14.2948ZM9.98788 2.36395H7.32465V17.1712H9.98788V2.36395Z" fill="#FFFEFD"/>
<path d="M33.4714 1.33056L33.3444 1.48506L33.3465 1.48673L33.4714 1.33056ZM32.3617 1.06008L32.4025 1.25587L32.4037 1.25564L32.3617 1.06008ZM33.9638 50.7806V50.9806H34.1638V50.7806H33.9638ZM31.3006 50.7806H31.1006V50.9806H31.3006V50.7806ZM31.3006 4.16024H31.5006V3.87164L31.2304 3.97297L31.3006 4.16024ZM24.9269 26.978H24.7269V27.178H24.9269V26.978ZM29.1714 26.978H29.3714V26.778H29.1714V26.978ZM29.1714 29.6412V29.8412H29.3714V29.6412H29.1714ZM9.96014 22.1301V21.9297L9.9474 21.9305L9.96014 22.1301ZM14.2948 17.8786V17.6786H14.0948V17.8786H14.2948ZM8.65627 22.2133L8.64429 22.4129L8.65665 22.4137L8.66901 22.4129L8.65627 22.2133ZM7.26917 22.1301L7.28117 21.9301H7.26917V22.1301ZM3.01772 2.36395H3.21772V2.16395H3.01772V2.36395ZM0.354492 2.36395V2.16395H0.154492V2.36395H0.354492ZM7.33159 24.7933H7.53159V24.5933H7.33159V24.7933ZM7.33159 50.9678H7.13159V51.1678H7.33159V50.9678ZM9.99481 50.9678V51.1678H10.1948V50.9678H9.99481ZM9.99481 24.8002V24.6002H9.79481V24.8002H9.99481ZM16.965 2.36395H17.165V2.16395H16.965V2.36395ZM14.3017 2.36395V2.16395H14.1017V2.36395H14.3017ZM14.3017 17.8786V18.0786H14.5017V17.8786H14.3017ZM7.32465 2.36395V2.16395H7.12465V2.36395H7.32465ZM9.98788 2.36395H10.1879V2.16395H9.98788V2.36395ZM7.32465 17.1712H7.12465V17.3712H7.32465V17.1712ZM9.98788 17.1712V17.3712H10.1879V17.1712H9.98788ZM33.5984 1.17607C33.239 0.88053 32.7675 0.76858 32.3198 0.864515L32.4037 1.25564C32.7327 1.18512 33.0797 1.26736 33.3444 1.48504L33.5984 1.17607ZM34.1638 2.36395C34.1638 1.90217 33.9569 1.46279 33.5964 1.17439L33.3465 1.48673C33.6102 1.69769 33.7638 2.0212 33.7638 2.36395H34.1638ZM34.1638 50.7806V2.36395H33.7638V50.7806H34.1638ZM31.3006 50.9806H33.9638V50.5806H31.3006V50.9806ZM31.1006 4.16024V50.7806H31.5006V4.16024H31.1006ZM25.1269 11.9765C25.1269 7.37094 29.0498 5.21788 31.3708 4.3475L31.2304 3.97297C28.8907 4.85034 24.7269 7.09437 24.7269 11.9765H25.1269ZM25.1269 26.978V11.9765H24.7269V26.978H25.1269ZM29.1714 26.778H24.9269V27.178H29.1714V26.778ZM29.3714 29.6412V26.978H28.9714V29.6412H29.3714ZM23.5884 29.8412H29.1714V29.4412H23.5884V29.8412ZM22.0567 28.3096C22.0567 29.1552 22.7427 29.8412 23.5884 29.8412V29.4412C22.9637 29.4412 22.4567 28.9343 22.4567 28.3096H22.0567ZM22.0567 11.9765V28.3096H22.4567V11.9765H22.0567ZM32.321 0.86428C30.5466 1.23394 27.9883 2.23296 25.8693 4.02486C23.7459 5.82048 22.0567 8.4197 22.0567 11.9765H22.4567C22.4567 8.56319 24.0723 6.0683 26.1276 4.33029C28.1872 2.58856 30.6814 1.61443 32.4025 1.25587L32.321 0.86428ZM9.96014 22.3301C12.4955 22.3301 14.4948 20.3358 14.4948 17.8786H14.0948C14.0948 20.1098 12.2796 21.9301 9.96014 21.9301V22.3301ZM8.66901 22.4129L9.97288 22.3297L9.9474 21.9305L8.64353 22.0137L8.66901 22.4129ZM7.25719 22.3297L8.64429 22.4129L8.66825 22.0137L7.28115 21.9304L7.25719 22.3297ZM2.81772 17.8786C2.81772 20.3333 4.81452 22.3301 7.26917 22.3301V21.9301C5.03543 21.9301 3.21772 20.1124 3.21772 17.8786H2.81772ZM2.81772 2.36395V17.8786H3.21772V2.36395H2.81772ZM0.354492 2.56395H3.01772V2.16395H0.354492V2.56395ZM0.554492 17.8786V2.36395H0.154492V17.8786H0.554492ZM7.18594 24.5933C3.56668 24.5933 0.554492 21.5843 0.554492 17.8786H0.154492C0.154492 21.802 3.34263 24.9933 7.18594 24.9933V24.5933ZM7.33159 24.5933H7.18594V24.9933H7.33159V24.5933ZM7.53159 50.9678V24.7933H7.13159V50.9678H7.53159ZM9.99481 50.7678H7.33159V51.1678H9.99481V50.7678ZM9.79481 24.8002V50.9678H10.1948V24.8002H9.79481ZM10.0503 24.6002H9.99481V25.0002H10.0503V24.6002ZM16.765 17.8786C16.765 21.5829 13.7541 24.6002 10.0503 24.6002V25.0002C13.9755 25.0002 17.165 21.8033 17.165 17.8786H16.765ZM16.765 2.36395V17.8786H17.165V2.36395H16.765ZM14.3017 2.56395H16.965V2.16395H14.3017V2.56395ZM14.5017 17.8786V2.36395H14.1017V17.8786H14.5017ZM14.2948 18.0786H14.3017V17.6786H14.2948V18.0786ZM7.32465 2.56395H9.98788V2.16395H7.32465V2.56395ZM7.52465 17.1712V2.36395H7.12465V17.1712H7.52465ZM9.98788 16.9712H7.32465V17.3712H9.98788V16.9712ZM9.78788 2.36395V17.1712H10.1879V2.36395H9.78788Z" fill="#FDFDFD" mask="url(#path-1-outside-1_510_12099)"/>
</svg>
