<svg width="100" height="92" viewBox="0 0 100 92" fill="none" xmlns="http://www.w3.org/2000/svg">
<path d="M38.4687 68.2997C34.6959 72.2122 28.4626 72.3215 24.5501 68.5488C20.6376 64.776 20.5282 58.5427 24.301 54.6302C28.0738 50.7177 34.3071 50.6083 38.2196 54.3811C39.1005 55.2316 39.8113 56.2341 40.3217 57.3458" stroke="#99938F" stroke-width="3"/>
<path d="M43.8757 27.0176C38.6387 25.5534 35.5828 20.116 37.047 14.8791C38.5111 9.64215 43.9486 6.58625 49.1855 8.05041C54.4224 9.51456 57.4783 14.952 56.0142 20.1889C55.5889 21.7138 54.7991 23.1112 53.7177 24.2655" stroke="#99938F" stroke-width="3"/>
<path d="M54.9629 31.4832L59.1245 30.3167C60.7527 29.697 62.5935 30.0494 63.8754 31.2341L68.037 30.0676C70.3213 29.5391 72.63 30.8392 73.3651 33.0689L77.5267 31.9024C79.811 31.3738 82.1196 32.674 82.8608 34.8975L88.6931 55.7177C89.8718 59.934 88.4684 63.8769 89.2582 66.6837C90.048 69.4905 98.7964 76.9996 98.7964 76.9996" stroke="white" stroke-width="3"/>
<path d="M77.8914 90.3467C73.6873 86.6164 69.2827 83.1109 64.6958 79.8546C62.2657 78.6881 58.4808 79.168 54.7748 77.1571C50.5707 74.8849 48.827 72.4183 45.2122 70.4621C41.081 68.2264 33.1466 66.3977 27.612 63.1778C25.9959 61.5496 29.6229 56.6893 34.3556 56.6893C39.0883 56.6893 41.4394 58.7306 44.307 58.7306C46.0324 58.6942 47.7396 58.3904 49.3678 57.8315C50.4431 57.2422 51.0324 56.0453 50.8441 54.8363C48.9911 46.6043 42.5391 19.2227 42.5391 19.2227C41.8951 16.9263 43.2377 14.5387 45.5342 13.8947C47.8307 13.2507 50.2183 14.5933 50.8623 16.8898L57.5695 40.8388" stroke="white" stroke-width="3"/>
<path d="M63.8755 31.2339L66.5 40.6142" stroke="white" stroke-width="3"/>
<path d="M73.3716 33.0688L75.4129 40.3592" stroke="white" stroke-width="3"/>
<path d="M27.5694 2.92285L19.6836 24.5814" stroke="#99938F" stroke-width="3"/>
<path d="M19.5073 6.68327L27.5632 2.92871L31.3178 10.9846" stroke="#99938F" stroke-width="3"/>
<path d="M5.35205 63.9676L13.2378 42.3091" stroke="#99938F" stroke-width="3"/>
<path d="M1.59131 55.9121L5.34586 63.968L13.4018 60.2134" stroke="#99938F" stroke-width="3"/>
</svg>
