<svg width="76" height="90" viewBox="0 0 76 90" fill="none" xmlns="http://www.w3.org/2000/svg">
<g clip-path="url(#clip0_3437_93)">
<path d="M75.2709 90.0003H71.8784V23.2389C71.8784 22.8431 71.5533 22.518 71.1575 22.518H4.09926C3.70347 22.518 3.37836 22.8431 3.37836 23.2248V90.0003H0V23.2389C0 20.9772 1.8376 19.1396 4.09926 19.1396H71.1717C73.4333 19.1396 75.2851 20.9772 75.2851 23.253V90.0003H75.2709Z" fill="white"/>
<path d="M23.4365 42.4911C26.9845 42.4911 29.8681 39.6075 29.8681 36.0595C29.8681 32.5115 26.9845 29.6279 23.4365 29.6279C19.8885 29.6279 17.0049 32.5115 17.0049 36.0595C17.0049 39.6075 19.8885 42.4911 23.4365 42.4911ZM19.7471 36.0595C19.7471 34.024 21.401 32.3702 23.4365 32.3702C25.472 32.3702 27.1258 34.024 27.1258 36.0595C27.1258 38.095 25.472 39.7489 23.4365 39.7489C21.401 39.7489 19.7471 38.095 19.7471 36.0595Z" fill="white"/>
<path d="M28.709 43.9189H18.1498C15.2097 43.9189 12.8208 46.3078 12.8208 49.248V68.769C12.8208 69.7867 13.6548 70.6207 14.6725 70.6207H18.4184V90.0003H21.1607V67.8643H15.5913V49.2621C15.5913 47.8486 16.7363 46.7036 18.1498 46.7036H28.709C30.1225 46.7036 31.2675 47.8486 31.2675 49.2621V67.8643H25.7123V90.0003H28.4545V70.6207H32.1721C33.204 70.6207 34.038 69.7867 34.038 68.7548V49.2621C34.038 46.322 31.6491 43.9331 28.709 43.9331V43.9189Z" fill="white"/>
<path d="M50.2937 42.4911C53.8416 42.4911 56.7253 39.6075 56.7253 36.0595C56.7253 32.5115 53.8416 29.6279 50.2937 29.6279C46.7457 29.6279 43.8621 32.5115 43.8621 36.0595C43.8621 39.6075 46.7457 42.4911 50.2937 42.4911ZM46.6043 36.0595C46.6043 34.024 48.2582 32.3702 50.2937 32.3702C52.3292 32.3702 53.983 34.024 53.983 36.0595C53.983 38.095 52.3292 39.7489 50.2937 39.7489C48.2582 39.7489 46.6043 38.095 46.6043 36.0595Z" fill="white"/>
<path d="M63.5809 71.327L58.6901 61.6866V50.6045C58.6901 46.9151 55.6934 43.9043 51.9899 43.9043H48.5974C44.9081 43.9043 41.8972 46.901 41.8972 50.6045V61.6866L36.9923 71.3128C36.8085 71.7934 36.8792 72.3164 37.1619 72.7405C37.4446 73.1645 37.9252 73.4049 38.4341 73.4049H45.4311V89.9857H48.1733V70.6767H40.201L44.6112 62.252V50.6186C44.6254 48.4418 46.4064 46.6607 48.5833 46.6607H51.9758C54.1526 46.6607 55.9337 48.4418 55.9337 50.6186V62.1814L60.358 70.6909H52.3857V89.9998H55.128V73.419H62.1532C62.6621 73.419 63.1286 73.1787 63.4113 72.7546C63.694 72.3447 63.7647 71.8076 63.5809 71.327Z" fill="white"/>
<path d="M24.7368 10.9408V0H22.9416V10.9267L15.2661 3.25114V5.80964L23.3233 13.8527L23.8322 14.404L32.4265 5.80964V3.25114L24.7368 10.9408Z" fill="white"/>
<path d="M50.5339 3.46317V14.404H52.3291V3.46317L60.0046 11.1387V8.59432L51.9474 0.537145L51.4386 0L42.8442 8.59432V11.1528L50.5339 3.46317Z" fill="white"/>
</g>
<defs>
<clipPath id="clip0_3437_93">
<rect width="75.2709" height="90" fill="white"/>
</clipPath>
</defs>
</svg>
