<svg width="40" height="40" viewBox="0 0 40 40" fill="none" xmlns="http://www.w3.org/2000/svg">
<path fill-rule="evenodd" clip-rule="evenodd" d="M19.825 32.5242C17.2637 32.5242 14.76 31.7903 12.6304 30.4155C10.5008 29.0407 8.84092 27.0865 7.86076 24.8002C6.88061 22.514 6.62416 19.9982 7.12384 17.5711C7.62352 15.144 8.85688 12.9146 10.668 11.1647C12.4791 9.41487 14.7865 8.2232 17.2986 7.74042C19.8106 7.25764 22.4144 7.50542 24.7808 8.45243C27.1471 9.39944 29.1696 11.0031 30.5925 13.0607C32.0155 15.1183 32.775 17.5374 32.775 20.0121C32.7717 23.3295 31.4063 26.5102 28.9784 28.8559C26.5505 31.2017 23.2585 32.521 19.825 32.5242ZM19.825 8.71378C17.5107 8.71378 15.2484 9.37692 13.3242 10.6193C11.4 11.8617 9.90038 13.6276 9.01502 15.6935C8.12965 17.7595 7.89832 20.0327 8.35028 22.2257C8.80223 24.4187 9.91717 26.4329 11.5541 28.0136C13.191 29.5943 15.2763 30.6705 17.5463 31.106C19.8163 31.5415 22.1689 31.3168 24.3067 30.4602C26.4445 29.6037 28.2714 28.1539 29.5562 26.2941C30.8411 24.4343 31.5262 22.2481 31.525 20.0121C31.5275 18.5258 31.2267 17.0536 30.6399 15.6796C30.0531 14.3057 29.1918 13.057 28.1052 12.0048C27.0186 10.9527 25.728 10.1179 24.3072 9.548C22.8864 8.97811 21.3633 8.68437 19.825 8.68357V8.71378ZM19.825 16.1775C19.3481 16.1763 18.8823 16.0386 18.4864 15.7817C18.0905 15.5249 17.7822 15.1604 17.6006 14.7344C17.4189 14.3084 17.3721 13.8399 17.4659 13.3882C17.5596 12.9364 17.7899 12.5216 18.1276 12.1963C18.4652 11.8709 18.8951 11.6495 19.3629 11.56C19.8307 11.4706 20.3154 11.5171 20.7559 11.6937C21.1964 11.8703 21.5728 12.169 21.8376 12.5522C22.1024 12.9354 22.2438 13.3858 22.2438 13.8466C22.2438 14.1532 22.1811 14.4568 22.0595 14.74C21.9379 15.0232 21.7596 15.2804 21.5349 15.4969C21.3103 15.7134 21.0436 15.885 20.7501 16.0018C20.4567 16.1186 20.1423 16.1783 19.825 16.1775ZM19.825 12.7234C19.5953 12.7246 19.3712 12.7915 19.1809 12.9156C18.9905 13.0397 18.8425 13.2156 18.7554 13.4209C18.6684 13.6263 18.6463 13.8519 18.6918 14.0694C18.7374 14.2869 18.8486 14.4864 19.0114 14.6429C19.1743 14.7994 19.3814 14.9058 19.6067 14.9486C19.8321 14.9915 20.0655 14.9689 20.2775 14.8837C20.4896 14.7985 20.6708 14.6545 20.7983 14.47C20.9257 14.2854 20.9937 14.0685 20.9938 13.8466C20.9938 13.6986 20.9635 13.552 20.9047 13.4154C20.8459 13.2787 20.7597 13.1546 20.6511 13.0502C20.5424 12.9458 20.4136 12.8632 20.2718 12.8071C20.13 12.751 19.9782 12.7226 19.825 12.7234ZM18.1437 28.454H21.5125C21.6783 28.454 21.8372 28.3904 21.9544 28.2772C22.0717 28.1639 22.1375 28.0103 22.1375 27.8502V17.7294C22.1375 17.5692 22.0717 17.4156 21.9544 17.3024C21.8372 17.1892 21.6783 17.1255 21.5125 17.1255H18.1437C17.978 17.1255 17.819 17.1892 17.7018 17.3024C17.5846 17.4156 17.5187 17.5692 17.5187 17.7294V27.8502C17.5187 28.0103 17.5846 28.1639 17.7018 28.2772C17.819 28.3904 17.978 28.454 18.1437 28.454ZM20.8875 27.2463H18.7688V18.3333H20.8875V27.2463Z" fill="#393734"/>
</svg>
