<svg width="300" height="146" viewBox="0 0 300 146" fill="none" xmlns="http://www.w3.org/2000/svg">
<path d="M24.3665 55.4109C16.174 55.4109 9.50882 48.9332 9.50882 40.9711C9.50882 33.0086 16.174 26.5309 24.3665 26.5309C32.5591 26.5309 39.2243 33.0086 39.2243 40.9711C39.2243 48.9332 32.5591 55.4109 24.3665 55.4109ZM39.2485 22.2388C35.1287 19.1399 29.9674 17.2895 24.3665 17.2895C10.9304 17.2895 0 27.9129 0 40.9711C0 54.0289 10.9304 64.6527 24.3665 64.6527C37.8027 64.6527 48.7335 54.0289 48.7335 40.9711H48.7573V0.53907H39.2485V22.2388Z" fill="#192A67"/>
<path d="M130.412 55.4109C122.219 55.4109 115.554 48.9332 115.554 40.9711C115.554 33.0086 122.219 26.5309 130.412 26.5309C138.604 26.5309 145.269 33.0086 145.269 40.9711C145.269 48.9332 138.604 55.4109 130.412 55.4109ZM130.412 17.2895C124.811 17.2895 119.65 19.1399 115.529 22.2388V0.53907H106.021V40.9711H106.045C106.045 54.0289 116.976 64.6527 130.412 64.6527C143.847 64.6527 154.778 54.0289 154.778 40.9711C154.778 27.9129 143.847 17.2895 130.412 17.2895Z" fill="#192A67"/>
<path d="M275.633 55.4109C267.441 55.4109 260.775 48.9332 260.775 40.9711C260.775 33.0086 267.441 26.5309 275.633 26.5309C283.826 26.5309 290.491 33.0086 290.491 40.9711C290.491 48.9332 283.826 55.4109 275.633 55.4109ZM275.633 17.2895C262.197 17.2895 251.267 27.9129 251.267 40.9711C251.267 54.0289 262.197 64.6527 275.633 64.6527C289.069 64.6527 300 54.0289 300 40.9711C300 27.9129 289.069 17.2895 275.633 17.2895Z" fill="#192A67"/>
<path d="M77.3885 55.4109C69.196 55.4109 62.5308 48.9332 62.5308 40.9711C62.5308 33.0086 69.196 26.5309 77.3885 26.5309C85.581 26.5309 92.2462 33.0086 92.2462 40.9711C92.2462 48.9332 85.581 55.4109 77.3885 55.4109ZM77.3885 17.2895C63.9524 17.2895 53.022 27.9129 53.022 40.9711C53.022 54.0289 63.9524 64.6527 77.3885 64.6527C82.9784 64.6527 88.1304 62.8091 92.2462 59.7214V64.0747H101.755V40.9711C101.755 27.9129 90.8247 17.2895 77.3885 17.2895Z" fill="#192A67"/>
<path d="M222.635 55.4109C214.442 55.4109 207.777 48.9332 207.777 40.9711C207.777 33.0086 214.442 26.5309 222.635 26.5309V17.2895C222.13 17.2895 221.63 17.3092 221.133 17.3388V17.3281C218.839 17.3281 216.973 15.514 216.973 13.2847C216.973 11.0554 218.839 9.2414 221.133 9.2414C223.427 9.2414 225.293 11.0554 225.293 13.2847H234.802C234.802 5.95972 228.67 4.57764e-05 221.133 4.57764e-05C213.596 4.57764e-05 207.464 5.95972 207.464 13.2847C207.464 16.0758 208.358 18.6647 209.877 20.805C202.917 24.9793 198.268 32.4563 198.268 40.9711C198.268 48.9332 191.603 55.4109 183.41 55.4109C175.217 55.4109 168.552 48.9332 168.552 40.9711C168.552 33.0086 175.217 26.5309 183.41 26.5309V17.2895C182.906 17.2895 182.406 17.3092 181.908 17.3388V17.3281C179.614 17.3281 177.748 15.514 177.748 13.2847C177.748 11.0554 179.614 9.2414 181.908 9.2414C184.202 9.2414 186.069 11.0554 186.069 13.2847H195.578C195.578 5.95972 189.445 4.57764e-05 181.908 4.57764e-05C174.371 4.57764e-05 168.239 5.95972 168.239 13.2847C168.239 16.0758 169.133 18.6647 170.652 20.8054C163.693 24.9793 159.043 32.4563 159.043 40.9711C159.043 54.0289 169.974 64.6527 183.41 64.6527C191.445 64.6527 198.581 60.8513 203.022 55.0046C207.464 60.8513 214.6 64.6527 222.635 64.6527C236.071 64.6527 247.002 54.0289 247.002 40.9711H237.493C237.493 48.9332 230.828 55.4109 222.635 55.4109Z" fill="#192A67"/>
<path d="M127.271 106.479H136.522V144.69H127.271V106.479Z" fill="#192A67"/>
<path d="M91.1867 144.92L76.7273 106.488H85.3176L95.7251 135.066L106.133 106.488H114.52L100.056 144.92H91.1867Z" fill="#192A67"/>
<path d="M149.405 145.351V107.139H157.995L173.378 130.259V107.139H181.472L181.784 145.351H173.378L157.995 122.392V130.259V145.351H149.405Z" fill="#192A67"/>
<path d="M208.706 129.314H219.278L213.992 114.925L208.706 129.314ZM194.664 145.59L209.247 107.158H217.957L233.651 145.59H224.73L220.716 136.278H206.723L203.089 145.59H194.664Z" fill="#192A67"/>
</svg>
