<svg width="384" height="384" viewBox="0 0 384 384" fill="none" xmlns="http://www.w3.org/2000/svg">
<g clip-path="url(#clip0_4109_29323)">
<path d="M192 372C291.411 372 372 291.411 372 192C372 92.5887 291.411 12 192 12C92.5887 12 12 92.5887 12 192C12 291.411 92.5887 372 192 372Z" fill="#1A68DA"/>
<path fill-rule="evenodd" clip-rule="evenodd" d="M192 24C99.2162 24 24 99.2162 24 192C24 284.784 99.2162 360 192 360C284.784 360 360 284.784 360 192C360 99.2162 284.784 24 192 24ZM0 192C0 85.9613 85.9613 0 192 0C298.039 0 384 85.9613 384 192C384 298.039 298.039 384 192 384C85.9613 384 0 298.039 0 192Z" fill="white"/>
</g>
<defs>
<clipPath id="clip0_4109_29323">
<rect width="384" height="384" fill="white"/>
</clipPath>
</defs>
</svg>
