<svg width="20" height="26" viewBox="0 0 20 26" fill="none" xmlns="http://www.w3.org/2000/svg">
<path fill-rule="evenodd" clip-rule="evenodd" d="M17.5 9.75C17.5 11.0694 17.031 12.6432 16.1831 14.3612C15.346 16.0572 14.2087 17.7562 13.0365 19.2885C11.8689 20.8148 10.6963 22.1373 9.8138 23.0794L9.75 23.1474L9.6862 23.0794C8.80365 22.1373 7.63111 20.8148 6.46349 19.2885C5.29133 17.7562 4.15399 16.0572 3.3169 14.3612C2.46898 12.6432 2 11.0694 2 9.75C2 5.46979 5.46979 2 9.75 2C14.0302 2 17.5 5.46979 17.5 9.75ZM19.5 9.75C19.5 16.7598 9.75 26 9.75 26C9.75 26 -4.03903e-07 16.7598 -7.1031e-07 9.75C-9.45686e-07 4.36522 4.36522 -1.9081e-07 9.75 -4.26186e-07C15.1348 -6.61562e-07 19.5 4.36522 19.5 9.75ZM11.8125 9.75C11.8125 10.8891 10.8891 11.8125 9.75 11.8125C8.61091 11.8125 7.6875 10.8891 7.6875 9.75C7.6875 8.61091 8.61091 7.6875 9.75 7.6875C10.8891 7.6875 11.8125 8.61091 11.8125 9.75ZM13.8125 9.75C13.8125 11.9937 11.9937 13.8125 9.75 13.8125C7.50634 13.8125 5.6875 11.9937 5.6875 9.75C5.6875 7.50634 7.50634 5.6875 9.75 5.6875C11.9937 5.6875 13.8125 7.50634 13.8125 9.75Z" fill="#393734"/>
</svg>
