<svg width="40" height="40" viewBox="0 0 40 40" fill="none" xmlns="http://www.w3.org/2000/svg">
<path fill-rule="evenodd" clip-rule="evenodd" d="M17.5036 11.1734C16.9285 11.6852 16.1867 11.9701 15.4169 11.975C14.8205 11.9751 14.2362 11.8073 13.7309 11.4908C13.2255 11.1742 12.8195 10.7218 12.5593 10.1852C12.2991 9.64862 12.1954 9.04961 12.2598 8.45678C12.3243 7.86395 12.5544 7.30127 12.9238 6.83315C13.2932 6.36503 13.787 6.0104 14.3486 5.80988C14.9102 5.60936 15.5169 5.57106 16.0993 5.69935C16.6816 5.82764 17.2161 6.11734 17.6414 6.53528C18.0668 6.95322 18.3658 7.48248 18.5044 8.06249H26.5481C26.9935 8.06414 27.4202 8.24181 27.7351 8.55675C28.05 8.87169 28.2277 9.29836 28.2294 9.74375V11.8063H27.1106V9.74375C27.1114 9.67129 27.0978 9.59941 27.0705 9.5323C27.0431 9.46519 27.0026 9.40423 26.9514 9.35299C26.9001 9.30175 26.8392 9.26126 26.7721 9.23391C26.705 9.20657 26.6331 9.19292 26.5606 9.19376H25.7294V11.8063H24.6044V9.19376H18.5419C18.4477 9.95785 18.0786 10.6615 17.5036 11.1734ZM16.5616 7.08769C16.2225 6.86222 15.8241 6.74252 15.4169 6.74375C14.8737 6.7454 14.3532 6.96191 13.9691 7.346C13.585 7.73009 13.3685 8.25057 13.3669 8.79375C13.3656 9.20097 13.4853 9.59938 13.7108 9.93849C13.9363 10.2776 14.2573 10.5421 14.6333 10.6985C15.0093 10.8549 15.4233 10.8962 15.8227 10.817C16.2222 10.7379 16.5891 10.5419 16.8771 10.254C17.165 9.96603 17.361 9.59907 17.4401 9.19962C17.5193 8.80016 17.478 8.3862 17.3216 8.01021C17.1652 7.63423 16.9007 7.31315 16.5616 7.08769ZM11.3544 13.9876H29.1606C29.5255 14.0076 29.8829 14.0992 30.2123 14.2574C30.5417 14.4155 30.8368 14.637 31.0805 14.9093C31.3243 15.1815 31.5121 15.4991 31.6331 15.8439C31.754 16.1887 31.8059 16.554 31.7856 16.9189V30.9001C31.8267 31.6335 31.5767 32.3535 31.0898 32.9036C30.6029 33.4537 29.9186 33.7893 29.1856 33.8376H11.3544C10.6225 33.7893 9.93918 33.4545 9.45248 32.9058C8.96579 32.3571 8.71496 31.6387 8.75437 30.9064V16.9251C8.71326 16.1917 8.96332 15.4716 9.45019 14.9216C9.93706 14.3715 10.6214 14.0359 11.3544 13.9876ZM30.2664 32.1061C30.5419 31.7675 30.6744 31.3348 30.6356 30.9001L30.6606 16.9189C30.6993 16.4848 30.5666 16.0529 30.291 15.7153C30.0154 15.3778 29.6186 15.1615 29.1856 15.1126H11.3544C10.9228 15.1675 10.5288 15.3863 10.2542 15.7237C9.97963 16.0612 9.84541 16.4914 9.87939 16.9251V30.9064C9.84073 31.3404 9.97338 31.7723 10.249 32.1099C10.5246 32.4474 10.9214 32.6637 11.3544 32.7126H29.1606C29.5942 32.6622 29.9909 32.4446 30.2664 32.1061ZM12.3856 19.2188L11.8169 30.8375H28.6919L28.1231 19.2188H12.3856ZM13.0106 29.7125L13.4669 20.3375H27.0481L27.5106 29.7125H13.0106ZM20.2481 16.9312C18.9293 16.9312 17.8605 17.5875 17.8605 18.6813H16.7355C16.7355 16.9688 18.3168 15.8 20.2481 15.8C22.1793 15.8 23.7543 16.9688 23.7543 18.6813H22.6293C22.6293 17.5875 21.5668 16.9312 20.2481 16.9312Z" fill="#393734"/>
</svg>
