<svg width="170" height="24" viewBox="0 0 170 24" fill="none" xmlns="http://www.w3.org/2000/svg">
<path d="M8.81795 20.0525C5.85318 20.0525 3.44112 17.7083 3.44112 14.8269C3.44112 11.9454 5.85318 9.6012 8.81795 9.6012C11.7827 9.6012 14.1948 11.9454 14.1948 14.8269C14.1948 17.7083 11.7827 20.0525 8.81795 20.0525ZM14.2035 8.04795C12.7126 6.92652 10.8448 6.25688 8.81795 6.25688C3.95558 6.25688 0 10.1013 0 14.8269C0 19.5524 3.95558 23.397 8.81795 23.397C13.6803 23.397 17.636 19.5524 17.636 14.8269H17.6447V0.195097H14.2035V8.04795Z" fill="#192A67"/>
<path d="M47.1943 20.0525C44.2294 20.0525 41.8173 17.7083 41.8173 14.8269C41.8173 11.9454 44.2294 9.6012 47.1943 9.6012C50.1591 9.6012 52.5711 11.9454 52.5711 14.8269C52.5711 17.7083 50.1591 20.0525 47.1943 20.0525ZM47.1943 6.25688C45.1674 6.25688 43.2996 6.92652 41.8086 8.04795V0.195097H38.3674V14.8269H38.3762C38.3762 19.5524 42.3319 23.397 47.1943 23.397C52.0565 23.397 56.0123 19.5524 56.0123 14.8269C56.0123 10.1013 52.0565 6.25688 47.1943 6.25688Z" fill="#192A67"/>
<path d="M99.7481 20.0525C96.7834 20.0525 94.3713 17.7083 94.3713 14.8269C94.3713 11.9454 96.7834 9.6012 99.7481 9.6012C102.713 9.6012 105.125 11.9454 105.125 14.8269C105.125 17.7083 102.713 20.0525 99.7481 20.0525ZM99.7481 6.25688C94.8859 6.25688 90.9302 10.1013 90.9302 14.8269C90.9302 19.5524 94.8859 23.397 99.7481 23.397C104.61 23.397 108.566 19.5524 108.566 14.8269C108.566 10.1013 104.61 6.25688 99.7481 6.25688Z" fill="#192A67"/>
<path d="M28.0059 20.0525C25.0412 20.0525 22.6291 17.7083 22.6291 14.8269C22.6291 11.9454 25.0412 9.6012 28.0059 9.6012C30.9707 9.6012 33.3828 11.9454 33.3828 14.8269C33.3828 17.7083 30.9707 20.0525 28.0059 20.0525ZM28.0059 6.25688C23.1436 6.25688 19.188 10.1013 19.188 14.8269C19.188 19.5524 23.1436 23.397 28.0059 23.397C30.0288 23.397 31.8933 22.7298 33.3828 21.6124V23.1878H36.8239V14.8269C36.8239 10.1013 32.8683 6.25688 28.0059 6.25688Z" fill="#192A67"/>
<path d="M80.5687 20.0525C77.6039 20.0525 75.1919 17.7083 75.1919 14.8269C75.1919 11.9454 77.6039 9.6012 80.5687 9.6012V6.25688C80.386 6.25688 80.2052 6.264 80.0252 6.27469V6.27082C79.1951 6.27082 78.5196 5.61435 78.5196 4.80759C78.5196 4.00083 79.1951 3.34436 80.0252 3.34436C80.8555 3.34436 81.5308 4.00083 81.5308 4.80759H84.9719C84.9719 2.15676 82.7528 2.86102e-05 80.0252 2.86102e-05C77.2977 2.86102e-05 75.0785 2.15676 75.0785 4.80759C75.0785 5.81763 75.4023 6.75453 75.9518 7.52907C73.4333 9.03971 71.7508 11.7455 71.7508 14.8269C71.7508 17.7083 69.3387 20.0525 66.3739 20.0525C63.409 20.0525 60.9969 17.7083 60.9969 14.8269C60.9969 11.9454 63.409 9.6012 66.3739 9.6012V6.25688C66.1912 6.25688 66.0103 6.264 65.8303 6.27469V6.27082C65.0002 6.27082 64.3249 5.61435 64.3249 4.80759C64.3249 4.00083 65.0002 3.34436 65.8303 3.34436C66.6606 3.34436 67.3359 4.00083 67.3359 4.80759H70.7772C70.7772 2.15676 68.5578 2.86102e-05 65.8303 2.86102e-05C63.1028 2.86102e-05 60.8836 2.15676 60.8836 4.80759C60.8836 5.81763 61.2072 6.75453 61.7569 7.52922C59.2385 9.03971 57.5557 11.7455 57.5557 14.8269C57.5557 19.5524 61.5116 23.397 66.3739 23.397C69.2816 23.397 71.8641 22.0213 73.4712 19.9055C75.0785 22.0213 77.661 23.397 80.5687 23.397C85.4311 23.397 89.3868 19.5524 89.3868 14.8269H85.9457C85.9457 17.7083 83.5336 20.0525 80.5687 20.0525Z" fill="#192A67"/>
<path d="M131.503 8.3757H134.851V22.2039H131.503V8.3757Z" fill="#192A67"/>
<path d="M118.444 22.2871L113.211 8.37903H116.32L120.086 18.7211L123.853 8.37903H126.888L121.654 22.2871H118.444Z" fill="#192A67"/>
<path d="M139.512 22.443V8.61478H142.621L148.188 16.9814V8.61478H151.117L151.23 22.443H148.188L142.621 14.1344V16.9814V22.443H139.512Z" fill="#192A67"/>
<path d="M160.973 16.6395H164.799L162.886 11.4322L160.973 16.6395ZM155.891 22.5296L161.169 8.62149H164.321L170 22.5296H166.772L165.319 19.1597H160.255L158.94 22.5296H155.891Z" fill="#192A67"/>
</svg>
