<svg width="40" height="40" viewBox="0 0 40 40" fill="none" xmlns="http://www.w3.org/2000/svg">
<path d="M10.25 12.2741C10.25 11.6843 10.075 11.1078 9.74737 10.6173C9.41968 10.1269 8.95393 9.74471 8.40902 9.519C7.8641 9.29329 7.26449 9.23423 6.68601 9.34929C6.10753 9.46436 5.57616 9.74839 5.1591 10.1655C4.74204 10.5825 4.45801 11.1139 4.34295 11.6924C4.22788 12.2708 4.28694 12.8704 4.51265 13.4154C4.73836 13.9603 5.1206 14.426 5.61101 14.7537C6.10142 15.0814 6.67798 15.2563 7.26779 15.2563C8.05818 15.2546 8.81571 14.9399 9.37461 14.381C9.9335 13.8221 10.2483 13.0645 10.25 12.2741ZM5.57662 12.2741C5.57662 11.9397 5.67581 11.6127 5.86164 11.3346C6.04747 11.0565 6.31159 10.8397 6.62061 10.7117C6.92963 10.5837 7.26967 10.5502 7.59772 10.6155C7.92578 10.6807 8.22713 10.8418 8.46364 11.0783C8.70016 11.3148 8.86123 11.6162 8.92648 11.9442C8.99174 12.2723 8.95823 12.6123 8.83023 12.9213C8.70223 13.2304 8.48547 13.4945 8.20736 13.6803C7.92925 13.8661 7.60227 13.9653 7.26779 13.9653C7.0457 13.9653 6.82579 13.9216 6.62061 13.8366C6.41543 13.7516 6.229 13.627 6.07196 13.47C5.91492 13.3129 5.79034 13.1265 5.70535 12.9213C5.62036 12.7161 5.57662 12.4962 5.57662 12.2741Z" fill="#393734"/>
<path d="M12.3347 23.2897H9.21696C9.00996 23.3085 8.80132 23.2826 8.60527 23.2135C8.40922 23.1444 8.23036 23.0339 8.08089 22.8895C7.81597 22.5027 7.70756 22.0298 7.77751 21.5662C7.77751 21.5339 7.77751 21.5017 7.77751 21.4694V16.4287H6.48654V21.4694C6.42983 21.8731 6.45369 22.284 6.55673 22.6784C6.65976 23.0728 6.83993 23.4429 7.08684 23.7673C7.35448 24.0596 7.68407 24.2884 8.0515 24.4369C8.41893 24.5855 8.81492 24.65 9.2105 24.6258H12.3217C12.4935 24.6175 12.665 24.6452 12.8254 24.7072C12.9858 24.7691 13.1315 24.8639 13.2531 24.9855C13.3746 25.1071 13.4694 25.2527 13.5314 25.4131C13.5933 25.5735 13.621 25.7451 13.6127 25.9168V30.3572H14.9037V25.9168C14.9178 25.5729 14.8615 25.2298 14.7382 24.9085C14.6148 24.5872 14.4271 24.2946 14.1864 24.0485C13.9458 23.8024 13.6574 23.6082 13.339 23.4777C13.0205 23.3472 12.6787 23.2832 12.3347 23.2897Z" fill="#393734"/>
<path d="M5.81836 26.9399V26.6489H10.6665V26.9399H5.81836Z" fill="#393734" stroke="#393734"/>
<path d="M32.7319 9.28565C32.1405 9.28437 31.5621 9.45857 31.0697 9.78619C30.5774 10.1138 30.1934 10.5801 29.9662 11.1261C29.739 11.6721 29.6789 12.2732 29.7935 12.8533C29.908 13.4335 30.1922 13.9666 30.6099 14.3852C31.0276 14.8038 31.5601 15.0891 32.14 15.205C32.7199 15.3208 33.3212 15.262 33.8676 15.036C34.4141 14.81 34.8812 14.4269 35.2099 13.9353C35.5386 13.4437 35.714 12.8656 35.714 12.2743C35.714 11.4828 35.4001 10.7236 34.841 10.1633C34.2819 9.60299 33.5234 9.28736 32.7319 9.28565ZM32.7319 13.9654C32.3956 13.9667 32.0665 13.8681 31.7863 13.682C31.5061 13.496 31.2876 13.2309 31.1583 12.9204C31.029 12.61 30.9948 12.2681 31.0601 11.9382C31.1254 11.6083 31.2872 11.3052 31.525 11.0674C31.7628 10.8296 32.0659 10.6678 32.3958 10.6025C32.7257 10.5372 33.0676 10.5714 33.3781 10.7006C33.6885 10.8299 33.9536 11.0485 34.1396 11.3287C34.3257 11.6088 34.4243 11.938 34.423 12.2743C34.423 12.7228 34.2449 13.1529 33.9277 13.4701C33.6106 13.7873 33.1804 13.9654 32.7319 13.9654Z" fill="#393734"/>
<path d="M32.9003 23.7216C33.1493 23.3982 33.3312 23.0284 33.4354 22.6338C33.5396 22.2392 33.564 21.8278 33.5071 21.4237V16.4282H32.2161V21.4237C32.2161 21.4237 32.2161 21.4882 32.2161 21.5205C32.2861 21.9841 32.1777 22.4569 31.9127 22.8437C31.7633 22.9882 31.5844 23.0987 31.3884 23.1678C31.1923 23.2368 30.9837 23.2628 30.7767 23.2439H27.659C27.3175 23.2351 26.9778 23.2958 26.6605 23.4224C26.3432 23.549 26.055 23.7389 25.8135 23.9804C25.5719 24.222 25.3821 24.5101 25.2555 24.8274C25.1289 25.1447 25.0681 25.4844 25.077 25.8259L25.077 30.3568H26.368V25.8259C26.3597 25.6542 26.3874 25.4826 26.4493 25.3222C26.5113 25.1618 26.6061 25.0162 26.7277 24.8946C26.8492 24.773 26.9949 24.6782 27.1553 24.6163C27.3157 24.5543 27.4872 24.5266 27.659 24.5349H30.796C31.1851 24.5632 31.5756 24.505 31.9394 24.3643C32.3033 24.2237 32.6314 24.0042 32.9003 23.7216Z" fill="#393734"/>
<path d="M29.3403 26.9399V26.6489H34.1885V26.9399H29.3403Z" fill="#393734" stroke="#393734"/>
<path d="M19.4705 19.9907V19.4907H18.9705H12.3701V19.1997H26.8554V19.4907H20.2615H19.7615V19.9907V30.9282H19.4705V19.9907Z" fill="#393734" stroke="#393734"/>
</svg>
