<svg width="15" height="19" viewBox="0 0 15 19" fill="none" xmlns="http://www.w3.org/2000/svg">
<path fill-rule="evenodd" clip-rule="evenodd" d="M13.2665 7.00008C13.2665 7.95512 12.9273 9.09071 12.3173 10.3265C11.715 11.547 10.8969 12.7689 10.0546 13.87C9.21535 14.967 8.37269 15.9174 7.73851 16.5944L7.6665 16.6711L7.5945 16.5944C6.96031 15.9174 6.11766 14.967 5.27845 13.87C4.43606 12.7689 3.61805 11.547 3.01567 10.3265C2.40573 9.0907 2.0665 7.95512 2.0665 7.00008C2.0665 3.90729 4.57371 1.40008 7.6665 1.40008C10.7593 1.40008 13.2665 3.90729 13.2665 7.00008ZM14.6665 7.00008C14.6665 12.0327 7.6665 18.6667 7.6665 18.6667C7.6665 18.6667 0.666504 12.0327 0.666503 7.00008C0.666503 3.13409 3.80051 8.1879e-05 7.6665 8.171e-05C11.5325 8.1541e-05 14.6665 3.13409 14.6665 7.00008ZM9.18317 7.00008C9.18317 7.83771 8.50414 8.51675 7.6665 8.51675C6.82887 8.51675 6.14984 7.83771 6.14984 7.00008C6.14984 6.16245 6.82887 5.48341 7.6665 5.48342C8.50414 5.48342 9.18317 6.16245 9.18317 7.00008ZM10.5832 7.00008C10.5832 8.61091 9.27733 9.91675 7.6665 9.91675C6.05567 9.91675 4.74984 8.61091 4.74984 7.00008C4.74984 5.38925 6.05567 4.08341 7.6665 4.08341C9.27733 4.08341 10.5832 5.38925 10.5832 7.00008Z" fill="#393734"/>
</svg>
