<svg width="30" height="30" viewBox="0 0 30 30" fill="none" xmlns="http://www.w3.org/2000/svg">
<path d="M15.7 29.17H8.90002C8.35002 29.17 7.90002 28.72 7.90002 28.17V21.27H1C0.45 21.27 0 20.82 0 20.27V8.9C0 8.35 0.45 7.9 1 7.9H7.90002V1C7.90002 0.45 8.35002 0 8.90002 0H20.26C20.81 0 21.26 0.45 21.26 1V7.9H28.16C28.71 7.9 29.16 8.35 29.16 8.9V20.26C29.16 20.81 28.71 21.26 28.16 21.26H21.26V27.11H19.26V20.26C19.26 19.71 19.71 19.26 20.26 19.26H27.16V9.9H20.26C19.71 9.9 19.26 9.45 19.26 8.9V2H9.90002V8.9C9.90002 9.45 9.45002 9.9 8.90002 9.9H2V19.26H8.90002C9.45002 19.26 9.90002 19.71 9.90002 20.26V27.16H15.7V29.17Z" fill="#393734"/>
</svg>
