<svg width="30" height="35" viewBox="0 0 30 35" fill="none" xmlns="http://www.w3.org/2000/svg">
<path d="M15.2243 11.1895H6.91382V34.4438H9.50091V25.5091H15.2315C19.9866 25.5091 22.8266 22.8415 22.8266 18.3671C22.8194 13.9353 19.9071 11.1895 15.2243 11.1895ZM20.2034 18.36C20.2034 21.4544 18.5413 22.9553 15.1304 22.9553H9.49368V13.729H15.1304C18.5413 13.729 20.2034 15.2442 20.2034 18.36Z" fill="#393734"/>
<path d="M0.410034 0.106689H2.48404C3.56079 0.106689 4.24009 0.725571 4.24009 1.74993C4.24009 2.7814 3.57525 3.38606 2.46959 3.38606H1.47956V5.08621H0.410034V0.106689ZM2.45514 2.41861C2.8815 2.41861 3.17056 2.16252 3.17056 1.74282C3.17056 1.28755 2.92486 1.06703 2.46236 1.06703H1.47956V2.41861H2.45514Z" fill="#393734"/>
<path d="M7.57882 4.31083H5.64212L5.37474 5.08621H4.31244L6.11907 0.106689H7.10187L8.9085 5.08621H7.8462L7.57882 4.31083ZM7.25363 3.38606L6.6177 1.55075H6.60325L5.96731 3.38606H7.25363Z" fill="#393734"/>
<path d="M13.1938 5.08621H12.0448L11.0909 3.33627H10.4405V5.08621H9.37097V0.106689H11.4305C12.5001 0.106689 13.1577 0.718466 13.1577 1.71437C13.1577 2.43996 12.7891 2.98058 12.1676 3.21533V3.22245L13.1938 5.08621ZM11.3005 2.37593C11.8135 2.37593 12.0881 2.14118 12.0881 1.70725C12.0881 1.28043 11.8208 1.06703 11.3005 1.06703H10.4405V2.37593H11.3005Z" fill="#393734"/>
<path d="M13.873 0.106689H14.9425V2.14118H14.957L16.6552 0.106689H17.9054L16.0482 2.31191L18.0499 5.08621H16.778L15.3906 3.0944H15.3761L14.9425 3.6137V5.08621H13.873V0.106689Z" fill="#393734"/>
<path d="M18.5052 0.106689H19.5748V5.08621H18.5052V0.106689Z" fill="#393734"/>
<path d="M20.5793 0.106689H21.6777L23.3904 3.27224H23.4048V0.106689H24.4744V5.08621H23.3759L21.6633 1.92066H21.6488V5.08621H20.5793V0.106689Z" fill="#393734"/>
<path d="M25.1826 2.59646C25.1826 1.02435 26.0642 0 27.4156 0C28.4779 0 29.28 0.697128 29.4101 1.70726L28.3695 1.87087C28.2611 1.30178 27.9142 0.960329 27.4156 0.960329C26.6857 0.960329 26.2521 1.5721 26.2521 2.59646C26.2521 3.62082 26.6857 4.23259 27.4228 4.23259C28.0154 4.23259 28.3695 3.89114 28.3767 3.30071H27.4734V2.45419H29.3884V3.12998C29.3884 4.37486 28.608 5.19293 27.4156 5.19293C26.057 5.19293 25.1826 4.17568 25.1826 2.59646Z" fill="#393734"/>
</svg>
