<svg width="22" height="22" viewBox="0 0 22 22" fill="none" xmlns="http://www.w3.org/2000/svg">
<path d="M6.03763 7.44218L5.12961 7.81212L5.48158 8.72725L5.69516 9.28256C6.93702 12.5114 9.48861 15.063 12.7174 16.3048L13.2727 16.5184L14.1879 16.8704L14.5578 15.9624L15.0128 14.8456L14.0867 14.4683L15.0128 14.8456C15.2854 14.1766 15.8837 13.6954 16.5957 13.5726C17.1237 13.4816 17.6666 13.5965 18.1125 13.8937L20.0168 15.1633C20.793 15.6808 21.1602 16.6304 20.9339 17.5354L20.4606 19.4285C20.2297 20.3521 19.3999 21 18.4479 21C8.81169 21 1 13.1883 1 3.55209C1 2.6001 1.64791 1.77028 2.57147 1.53939L4.46459 1.06611C5.36964 0.839844 6.31922 1.20696 6.8367 1.98318L8.10628 3.88754C8.40351 4.3334 8.51845 4.87627 8.4274 5.40433C8.30465 6.11629 7.82343 6.71463 7.15436 6.98722L6.03763 7.44218Z" stroke="#393734" stroke-width="2"/>
</svg>
