<svg width="34" height="25" viewBox="0 0 34 25" fill="none" xmlns="http://www.w3.org/2000/svg">
<path d="M33.3056 21.3529H32.3056V1.7199C32.3056 1.68919 32.3056 1.6508 32.2986 1.62009C32.1875 0.706389 31.4722 0 30.6389 0H2.9375C2.01389 0 1.26389 0.829237 1.26389 1.85811V13.0375C1.26389 14.0587 2.01389 14.8956 2.9375 14.8956H6.19444V19.7789H7.58333V14.8956H10.4583C11.3819 14.8956 12.1319 14.0663 12.1319 13.0375V8.6379C12.1319 8.4613 12.2639 8.31542 12.4167 8.31542H20.1806C20.3403 8.31542 20.4653 8.4613 20.4653 8.6379V21.3606H0.694444C0.3125 21.3606 0 21.7061 0 22.1284V25H1.38889V22.8962H32.6111V25H34V22.1284C34 21.6984 33.6875 21.3529 33.3056 21.3529ZM21.8542 21.3222V8.63022C21.8542 7.60903 21.1042 6.77211 20.1806 6.77211H12.4167C11.4931 6.77211 10.7431 7.60135 10.7431 8.63022V13.0298C10.7431 13.2064 10.6111 13.3523 10.4583 13.3523H2.9375C2.77778 13.3523 2.65278 13.2064 2.65278 13.0298V1.85043C2.65278 1.67384 2.78472 1.55098 2.9375 1.55098H30.6389C30.7708 1.55098 30.8819 1.6508 30.9167 1.78901V21.3222C28.9861 21.3375 22.1528 21.3222 21.8542 21.3222Z" fill="#393734"/>
<path d="M26.9185 10.6655C28.9028 10.6655 30.5185 9.09472 30.5185 7.16552C30.5185 5.23633 28.9028 3.66553 26.9185 3.66553C24.9342 3.66553 23.3185 5.23633 23.3185 7.16552C23.3185 9.09472 24.9342 10.6655 26.9185 10.6655ZM26.9185 5.19821C28.04 5.19821 28.9499 6.08274 28.9499 7.17315C28.9499 8.26357 28.04 9.1481 26.9185 9.1481C25.7969 9.1481 24.8871 8.26357 24.8871 7.17315C24.8871 6.08274 25.7969 5.19821 26.9185 5.19821Z" fill="#393734"/>
</svg>
