<svg width="40" height="40" viewBox="0 0 40 40" fill="none" xmlns="http://www.w3.org/2000/svg">
<path fill-rule="evenodd" clip-rule="evenodd" d="M12.9375 11.3043C13.5827 11.3043 14.2135 11.1195 14.75 10.7731C15.2866 10.4267 15.7047 9.93444 15.9516 9.35846C16.1986 8.78247 16.2632 8.14868 16.1373 7.53722C16.0114 6.92576 15.7007 6.36409 15.2444 5.92325C14.7882 5.48241 14.2068 5.1822 13.574 5.06057C12.9411 4.93894 12.2851 5.00136 11.689 5.23994C11.0928 5.47852 10.5833 5.88255 10.2248 6.40092C9.86633 6.91929 9.67499 7.52874 9.67499 8.15218C9.67499 8.98818 10.0187 9.78994 10.6306 10.3811C11.2424 10.9722 12.0722 11.3043 12.9375 11.3043ZM12.9375 6.20773C13.3355 6.20773 13.7246 6.32177 14.0556 6.53543C14.3865 6.74909 14.6445 7.05276 14.7968 7.40806C14.9491 7.76336 14.989 8.15433 14.9113 8.53152C14.8337 8.9087 14.642 9.25516 14.3605 9.5271C14.0791 9.79903 13.7205 9.98423 13.3301 10.0593C12.9397 10.1343 12.5351 10.0958 12.1673 9.9486C11.7996 9.80143 11.4853 9.55221 11.2642 9.23244C11.043 8.91268 10.925 8.53675 10.925 8.15218C10.925 7.63648 11.137 7.1419 11.5144 6.77725C11.8919 6.41259 12.4037 6.20773 12.9375 6.20773ZM28.6563 10.7731C28.1198 11.1195 27.489 11.3043 26.8437 11.3043C25.9785 11.3043 25.1486 10.9722 24.5368 10.3811C23.925 9.78994 23.5812 8.98818 23.5812 8.15218C23.5812 7.52874 23.7726 6.91929 24.1311 6.40092C24.4896 5.88255 24.9991 5.47852 25.5952 5.23994C26.1914 5.00136 26.8474 4.93894 27.4802 5.06057C28.1131 5.1822 28.6944 5.48241 29.1507 5.92325C29.6069 6.36409 29.9177 6.92576 30.0435 7.53722C30.1694 8.14868 30.1048 8.78247 29.8579 9.35846C29.611 9.93444 29.1928 10.4267 28.6563 10.7731ZM27.9618 6.53543C27.6309 6.32177 27.2418 6.20773 26.8437 6.20773C26.31 6.20773 25.7981 6.41259 25.4207 6.77725C25.0433 7.1419 24.8312 7.63648 24.8312 8.15218C24.8312 8.53675 24.9493 8.91268 25.1704 9.23244C25.3915 9.55221 25.7059 9.80143 26.0736 9.9486C26.4413 10.0958 26.846 10.1343 27.2364 10.0593C27.6267 9.98423 27.9853 9.79903 28.2668 9.5271C28.5482 9.25516 28.7399 8.9087 28.8176 8.53152C28.8952 8.15433 28.8554 7.76336 28.703 7.40806C28.5507 7.05276 28.2928 6.74909 27.9618 6.53543ZM31.1249 21.075L33.0499 25.9482H33.0624C33.1027 26.052 33.1164 26.1636 33.1024 26.2736C33.0884 26.3836 33.0472 26.4887 32.9821 26.58C32.9171 26.6713 32.8302 26.7461 32.7288 26.798C32.6275 26.8499 32.5146 26.8774 32.3999 26.8781H29.2749V35.2235H28.0249V25.6704H31.5999L29.8749 21.2984V15.4772C29.8733 14.9267 29.6462 14.3993 29.2434 14.01C28.8405 13.6208 28.2946 13.4015 27.7249 13.3999H25.9562C25.3865 13.4015 24.8406 13.6208 24.4377 14.01C24.0349 14.3993 23.8078 14.9267 23.8062 15.4772V21.2984L22.0749 25.6704H25.7124V35.2235H24.4624V26.8781H21.3374C21.2153 26.8833 21.0938 26.8583 20.9844 26.8055C20.875 26.7526 20.7814 26.6737 20.7124 26.5762C20.6473 26.4834 20.6059 26.3769 20.5918 26.2656C20.5777 26.1543 20.5912 26.0414 20.6312 25.9361L22.5562 21.075V15.4772C22.5578 14.6064 22.9166 13.7718 23.5538 13.1561C24.1911 12.5403 25.055 12.1937 25.9562 12.1921H27.7249C28.6262 12.1937 29.49 12.5403 30.1273 13.1561C30.7645 13.7718 31.1233 14.6064 31.1249 15.4772V21.075ZM10.1875 12.1921H15.6875C16.3971 12.2001 17.0749 12.4776 17.5743 12.9647C18.0738 13.4517 18.3547 14.1092 18.3562 14.7948V24.6136C18.3546 24.8406 18.2606 25.0577 18.0945 25.2182C17.9284 25.3787 17.7036 25.4695 17.4687 25.4711H15.4688V35.2235H14.2188V24.2453H17.1125V14.7948C17.1125 14.4296 16.9624 14.0794 16.6951 13.8212C16.4279 13.563 16.0654 13.418 15.6875 13.418H10.1875C9.80957 13.418 9.44711 13.563 9.17987 13.8212C8.91263 14.0794 8.7625 14.4296 8.7625 14.7948V24.2453H11.6688V35.2235H10.4188V25.4711H8.38125C8.14753 25.4711 7.92338 25.3814 7.75811 25.2217C7.59285 25.0621 7.5 24.8455 7.5 24.6197V14.7948C7.5 14.1056 7.78294 13.4445 8.28677 12.9566C8.79059 12.4686 9.47416 12.1937 10.1875 12.1921Z" fill="#393734"/>
</svg>
