<svg width="30" height="30" viewBox="0 0 30 30" fill="none" xmlns="http://www.w3.org/2000/svg">
<path d="M4.39394 7.36364C1.84848 7.36364 1 9.18182 1 10.3137V24.9216H29V10.3137C29 9.13725 28.2347 7.36364 25.6061 7.36364M4.39394 7.36364C6.93939 7.36364 7.78788 9.18182 7.78788 10.0909V17.8182H22.2121V14.1818V10.0909C22.2121 9.18182 22.9774 7.36364 25.6061 7.36364M4.39394 7.36364C4.39394 6.18023 4.39394 4.33333 4.39394 4.33333C4.39394 1.66667 6.11586 1 6.93939 1H23.0606C24.7077 1 25.6061 2.56863 25.6061 4.33333C25.6061 4.33333 25.6061 6.18023 25.6061 7.36364" stroke="#393734" stroke-width="1.5" stroke-linejoin="round"/>
<path d="M4.38562 25.1174V28.4508" stroke="#393734" stroke-width="1.5" stroke-linecap="round"/>
<path d="M24.8823 24.9216V28.451" stroke="#393734" stroke-width="1.5" stroke-linecap="round"/>
</svg>
