<svg width="41" height="46" viewBox="0 0 41 46" fill="none" xmlns="http://www.w3.org/2000/svg">
<mask id="path-1-inside-1_891_34693" fill="white">
<path fill-rule="evenodd" clip-rule="evenodd" d="M7.81688 5.2C7.30717 6.82285 5.79105 8 4 8C1.79086 8 -1.73931e-06 6.20914 -1.83588e-06 4C-1.93244e-06 1.79086 1.79086 -7.8281e-08 4 -1.74846e-07C5.79105 -2.53135e-07 7.30717 1.17716 7.81688 2.8L31.25 2.8C36.1929 2.8 40.2 6.80705 40.2 11.75C40.2 16.6929 36.193 20.7 31.25 20.7L10.75 20.7C7.13253 20.7 4.2 23.6325 4.2 27.25C4.2 30.8675 7.13253 33.8 10.75 33.8L23.9424 33.8C23.8715 33.3878 23.8335 32.9812 23.8335 32.5833C23.8335 28.1374 27.4376 24.5333 31.8835 24.5333C36.3294 24.5333 39.9335 28.1374 39.9335 32.5833C39.9335 38.3709 31.8835 46 31.8835 46C31.8835 46 26.7307 41.1166 24.6702 36.2L10.75 36.2C5.80705 36.2 1.8 32.1929 1.8 27.25C1.8 22.3071 5.80705 18.3 10.75 18.3L31.25 18.3C34.8675 18.3 37.8 15.3675 37.8 11.75C37.8 8.13254 34.8675 5.2 31.25 5.2L7.81688 5.2ZM37.5335 32.5833C37.5335 33.5106 37.1988 34.6909 36.5235 36.0591C35.8612 37.4011 34.9526 38.7615 34.0023 40.0038C33.2611 40.9727 32.5162 41.8416 31.8835 42.5405C31.2508 41.8416 30.5059 40.9727 29.7647 40.0038C28.8143 38.7615 27.9058 37.4011 27.2435 36.0591C26.5681 34.6909 26.2335 33.5106 26.2335 32.5833C26.2335 29.4629 28.7631 26.9333 31.8835 26.9333C35.0039 26.9333 37.5335 29.4629 37.5335 32.5833ZM33.3335 32.5833C33.3335 33.3841 32.6843 34.0333 31.8835 34.0333C31.0827 34.0333 30.4335 33.3841 30.4335 32.5833C30.4335 31.7825 31.0827 31.1333 31.8835 31.1333C32.6843 31.1333 33.3335 31.7825 33.3335 32.5833ZM35.3335 32.5833C35.3335 34.4887 33.7889 36.0333 31.8835 36.0333C29.9781 36.0333 28.4335 34.4887 28.4335 32.5833C28.4335 30.6779 29.9781 29.1333 31.8835 29.1333C33.7889 29.1333 35.3335 30.6779 35.3335 32.5833Z"/>
</mask>
<path fill-rule="evenodd" clip-rule="evenodd" d="M7.81688 5.2C7.30717 6.82285 5.79105 8 4 8C1.79086 8 -1.73931e-06 6.20914 -1.83588e-06 4C-1.93244e-06 1.79086 1.79086 -7.8281e-08 4 -1.74846e-07C5.79105 -2.53135e-07 7.30717 1.17716 7.81688 2.8L31.25 2.8C36.1929 2.8 40.2 6.80705 40.2 11.75C40.2 16.6929 36.193 20.7 31.25 20.7L10.75 20.7C7.13253 20.7 4.2 23.6325 4.2 27.25C4.2 30.8675 7.13253 33.8 10.75 33.8L23.9424 33.8C23.8715 33.3878 23.8335 32.9812 23.8335 32.5833C23.8335 28.1374 27.4376 24.5333 31.8835 24.5333C36.3294 24.5333 39.9335 28.1374 39.9335 32.5833C39.9335 38.3709 31.8835 46 31.8835 46C31.8835 46 26.7307 41.1166 24.6702 36.2L10.75 36.2C5.80705 36.2 1.8 32.1929 1.8 27.25C1.8 22.3071 5.80705 18.3 10.75 18.3L31.25 18.3C34.8675 18.3 37.8 15.3675 37.8 11.75C37.8 8.13254 34.8675 5.2 31.25 5.2L7.81688 5.2ZM37.5335 32.5833C37.5335 33.5106 37.1988 34.6909 36.5235 36.0591C35.8612 37.4011 34.9526 38.7615 34.0023 40.0038C33.2611 40.9727 32.5162 41.8416 31.8835 42.5405C31.2508 41.8416 30.5059 40.9727 29.7647 40.0038C28.8143 38.7615 27.9058 37.4011 27.2435 36.0591C26.5681 34.6909 26.2335 33.5106 26.2335 32.5833C26.2335 29.4629 28.7631 26.9333 31.8835 26.9333C35.0039 26.9333 37.5335 29.4629 37.5335 32.5833ZM33.3335 32.5833C33.3335 33.3841 32.6843 34.0333 31.8835 34.0333C31.0827 34.0333 30.4335 33.3841 30.4335 32.5833C30.4335 31.7825 31.0827 31.1333 31.8835 31.1333C32.6843 31.1333 33.3335 31.7825 33.3335 32.5833ZM35.3335 32.5833C35.3335 34.4887 33.7889 36.0333 31.8835 36.0333C29.9781 36.0333 28.4335 34.4887 28.4335 32.5833C28.4335 30.6779 29.9781 29.1333 31.8835 29.1333C33.7889 29.1333 35.3335 30.6779 35.3335 32.5833Z" fill="#67615D"/>
<path d="M7.81688 5.2L7.81688 2.8L6.05508 2.8L5.52716 4.48084L7.81688 5.2ZM7.81688 2.8L5.52716 3.51916L6.05508 5.2L7.81688 5.2L7.81688 2.8ZM31.25 2.8L31.25 5.2L31.25 2.8ZM31.25 20.7L31.25 23.1L31.25 20.7ZM10.75 20.7L10.75 18.3L10.75 20.7ZM4.2 27.25L1.8 27.25L4.2 27.25ZM10.75 33.8L10.75 31.4L10.75 33.8ZM23.9424 33.8L23.9424 36.2L26.7902 36.2L26.3077 33.3934L23.9424 33.8ZM31.8835 46L30.2326 47.742L31.8835 49.3066L33.5344 47.742L31.8835 46ZM24.6702 36.2L26.8837 35.2724L26.2667 33.8L24.6702 33.8L24.6702 36.2ZM10.75 36.2L10.75 33.8L10.75 36.2ZM1.8 27.25L-0.600002 27.25L1.8 27.25ZM10.75 18.3L10.75 15.9L10.75 18.3ZM31.25 18.3L31.25 20.7L31.25 18.3ZM36.5235 36.0591L38.6757 37.1213L38.6757 37.1213L36.5235 36.0591ZM34.0023 40.0038L32.0961 38.5455L32.0961 38.5455L34.0023 40.0038ZM31.8835 42.5405L30.1042 44.1512L31.8835 46.1168L33.6628 44.1512L31.8835 42.5405ZM29.7647 40.0038L27.8585 41.462L27.8585 41.462L29.7647 40.0038ZM27.2435 36.0591L29.3956 34.9969L29.3956 34.9969L27.2435 36.0591ZM31.8835 26.9333L31.8835 24.5333L31.8835 24.5333L31.8835 26.9333ZM5.52716 4.48084C5.32259 5.13215 4.7128 5.6 4 5.6L4 10.4C6.86931 10.4 9.29175 8.51354 10.1066 5.91916L5.52716 4.48084ZM4 5.6C3.11634 5.6 2.4 4.88366 2.4 4L-2.4 4C-2.4 7.53463 0.465376 10.4 4 10.4L4 5.6ZM2.4 4C2.4 3.11634 3.11634 2.4 4 2.4L4 -2.4C0.465376 -2.4 -2.4 0.465374 -2.4 4L2.4 4ZM4 2.4C4.71279 2.4 5.32259 2.86785 5.52716 3.51916L10.1066 2.08084C9.29175 -0.513535 6.86932 -2.4 4 -2.4L4 2.4ZM31.25 0.4L7.81688 0.399997L7.81688 5.2L31.25 5.2L31.25 0.4ZM42.6 11.75C42.6 5.48157 37.5184 0.4 31.25 0.4L31.25 5.2C34.8675 5.2 37.8 8.13254 37.8 11.75L42.6 11.75ZM31.25 23.1C37.5184 23.1 42.6 18.0184 42.6 11.75L37.8 11.75C37.8 15.3675 34.8675 18.3 31.25 18.3L31.25 23.1ZM10.75 23.1L31.25 23.1L31.25 18.3L10.75 18.3L10.75 23.1ZM6.6 27.25C6.6 24.958 8.45802 23.1 10.75 23.1L10.75 18.3C5.80705 18.3 1.8 22.3071 1.8 27.25L6.6 27.25ZM10.75 31.4C8.45802 31.4 6.6 29.542 6.6 27.25L1.8 27.25C1.8 32.1929 5.80705 36.2 10.75 36.2L10.75 31.4ZM23.9424 31.4L10.75 31.4L10.75 36.2L23.9424 36.2L23.9424 31.4ZM21.4335 32.5833C21.4335 33.1336 21.486 33.6769 21.5771 34.2066L26.3077 33.3934C26.257 33.0987 26.2335 32.8289 26.2335 32.5833L21.4335 32.5833ZM31.8835 22.1333C26.1121 22.1333 21.4335 26.812 21.4335 32.5833L26.2335 32.5833C26.2335 29.4629 28.7631 26.9333 31.8835 26.9333L31.8835 22.1333ZM42.3335 32.5833C42.3335 26.812 37.6549 22.1333 31.8835 22.1333L31.8835 26.9333C35.0039 26.9333 37.5335 29.4629 37.5335 32.5833L42.3335 32.5833ZM31.8835 46C33.5344 47.742 33.5348 47.7416 33.5351 47.7413C33.5353 47.7411 33.5357 47.7407 33.5361 47.7404C33.5367 47.7398 33.5375 47.739 33.5385 47.7381C33.5403 47.7364 33.5426 47.7342 33.5454 47.7315C33.5511 47.7261 33.5586 47.7189 33.568 47.7099C33.5869 47.6918 33.6132 47.6665 33.6464 47.6342C33.7129 47.5696 33.8073 47.477 33.9257 47.3587C34.1622 47.1224 34.4953 46.7827 34.8929 46.3583C35.6854 45.5122 36.7471 44.3158 37.8147 42.9202C38.8768 41.5318 39.9808 39.8997 40.8278 38.1835C41.6619 36.4936 42.3335 34.5499 42.3335 32.5833L37.5335 32.5833C37.5335 33.5106 37.1988 34.6909 36.5235 36.0591C35.8612 37.4011 34.9526 38.7615 34.0023 40.0038C33.0574 41.2389 32.1066 42.3115 31.3897 43.0768C31.0326 43.458 30.7368 43.7595 30.5331 43.963C30.4314 44.0647 30.3528 44.1417 30.3014 44.1917C30.2757 44.2166 30.2568 44.2349 30.2451 44.246C30.2393 44.2516 30.2353 44.2554 30.2332 44.2574C30.2322 44.2584 30.2316 44.259 30.2315 44.2591C30.2314 44.2591 30.2315 44.2591 30.2317 44.2589C30.2318 44.2588 30.232 44.2586 30.232 44.2585C30.2323 44.2583 30.2326 44.258 31.8835 46ZM22.4568 37.1276C23.6277 39.9216 25.6155 42.5919 27.2138 44.4897C28.0282 45.4567 28.774 46.261 29.3181 46.8256C29.5907 47.1084 29.814 47.3324 29.9716 47.4881C30.0504 47.566 30.1129 47.6269 30.1571 47.6696C30.1792 47.6909 30.1967 47.7077 30.2093 47.7198C30.2157 47.7259 30.2208 47.7308 30.2247 47.7345C30.2266 47.7363 30.2283 47.7379 30.2296 47.7391C30.2302 47.7398 30.2308 47.7403 30.2313 47.7408C30.2316 47.741 30.2319 47.7413 30.232 47.7414C30.2323 47.7417 30.2326 47.742 31.8835 46C33.5344 44.258 33.5346 44.2582 33.5349 44.2584C33.5349 44.2585 33.5351 44.2587 33.5352 44.2588C33.5354 44.2589 33.5355 44.2591 33.5355 44.2591C33.5356 44.2592 33.5354 44.2589 33.5348 44.2584C33.5337 44.2574 33.5314 44.2552 33.528 44.2519C33.521 44.2452 33.5093 44.234 33.4931 44.2184C33.4608 44.1871 33.4106 44.1383 33.3446 44.073C33.2123 43.9424 33.017 43.7465 32.7743 43.4947C32.2879 42.99 31.6167 42.2662 30.8853 41.3977C29.3921 39.6247 27.7733 37.395 26.8837 35.2724L22.4568 37.1276ZM10.75 38.6L24.6702 38.6L24.6702 33.8L10.75 33.8L10.75 38.6ZM-0.600002 27.25C-0.600002 33.5184 4.48156 38.6 10.75 38.6L10.75 33.8C7.13253 33.8 4.2 30.8675 4.2 27.25L-0.600002 27.25ZM10.75 15.9C4.48157 15.9 -0.600002 20.9816 -0.600002 27.25L4.2 27.25C4.2 23.6325 7.13253 20.7 10.75 20.7L10.75 15.9ZM31.25 15.9L10.75 15.9L10.75 20.7L31.25 20.7L31.25 15.9ZM35.4 11.75C35.4 14.042 33.542 15.9 31.25 15.9L31.25 20.7C36.1929 20.7 40.2 16.6929 40.2 11.75L35.4 11.75ZM31.25 7.6C33.542 7.6 35.4 9.45802 35.4 11.75L40.2 11.75C40.2 6.80705 36.1929 2.8 31.25 2.8L31.25 7.6ZM7.81688 7.6L31.25 7.6L31.25 2.8L7.81688 2.8L7.81688 7.6ZM38.6757 37.1213C39.4302 35.5926 39.9335 34.0305 39.9335 32.5833L35.1335 32.5833C35.1335 32.9907 34.9675 33.7891 34.3714 34.9969L38.6757 37.1213ZM35.9085 41.462C36.9147 40.1467 37.921 38.6505 38.6757 37.1213L34.3714 34.9969C33.8014 36.1517 32.9906 37.3763 32.0961 38.5455L35.9085 41.462ZM33.6628 44.1512C34.329 43.4152 35.1183 42.495 35.9085 41.462L32.0961 38.5455C31.4039 39.4504 30.7035 40.2679 30.1042 40.9299L33.6628 44.1512ZM27.8585 41.462C28.6487 42.495 29.438 43.4152 30.1042 44.1512L33.6628 40.9299C33.0635 40.2679 32.3631 39.4504 31.6709 38.5455L27.8585 41.462ZM25.0913 37.1213C25.846 38.6505 26.8523 40.1467 27.8585 41.462L31.6709 38.5455C30.7764 37.3763 29.9656 36.1517 29.3956 34.9969L25.0913 37.1213ZM23.8335 32.5833C23.8335 34.0305 24.3368 35.5926 25.0913 37.1213L29.3956 34.9969C28.7995 33.7891 28.6335 32.9907 28.6335 32.5833L23.8335 32.5833ZM31.8835 24.5333C27.4376 24.5333 23.8335 28.1374 23.8335 32.5833L28.6335 32.5833C28.6335 30.7884 30.0886 29.3333 31.8835 29.3333L31.8835 24.5333ZM39.9335 32.5833C39.9335 28.1374 36.3294 24.5333 31.8835 24.5333L31.8835 29.3333C33.6784 29.3333 35.1335 30.7884 35.1335 32.5833L39.9335 32.5833ZM31.8835 36.4333C34.0098 36.4333 35.7335 34.7096 35.7335 32.5833L30.9335 32.5833C30.9335 32.0587 31.3588 31.6333 31.8835 31.6333L31.8835 36.4333ZM28.0335 32.5833C28.0335 34.7096 29.7572 36.4333 31.8835 36.4333L31.8835 31.6333C32.4082 31.6333 32.8335 32.0587 32.8335 32.5833L28.0335 32.5833ZM31.8835 28.7333C29.7572 28.7333 28.0335 30.457 28.0335 32.5833L32.8335 32.5833C32.8335 33.108 32.4082 33.5333 31.8835 33.5333L31.8835 28.7333ZM35.7335 32.5833C35.7335 30.457 34.0098 28.7333 31.8835 28.7333L31.8835 33.5333C31.3588 33.5333 30.9335 33.108 30.9335 32.5833L35.7335 32.5833ZM31.8835 38.4333C35.1144 38.4333 37.7335 35.8142 37.7335 32.5833L32.9335 32.5833C32.9335 33.1632 32.4634 33.6333 31.8835 33.6333L31.8835 38.4333ZM26.0335 32.5833C26.0335 35.8142 28.6526 38.4333 31.8835 38.4333L31.8835 33.6333C31.3036 33.6333 30.8335 33.1632 30.8335 32.5833L26.0335 32.5833ZM31.8835 26.7333C28.6526 26.7333 26.0335 29.3525 26.0335 32.5833L30.8335 32.5833C30.8335 32.0034 31.3036 31.5333 31.8835 31.5333L31.8835 26.7333ZM37.7335 32.5833C37.7335 29.3525 35.1144 26.7333 31.8835 26.7333L31.8835 31.5333C32.4634 31.5333 32.9335 32.0034 32.9335 32.5833L37.7335 32.5833Z" fill="white" mask="url(#path-1-inside-1_891_34693)"/>
</svg>
