<?xml version="1.0" encoding="utf-8"?>
<!-- Generator: Adobe Illustrator 24.0.0, SVG Export Plug-In . SVG Version: 6.00 Build 0)  -->
<svg version="1.1" id="Layer_1" xmlns="http://www.w3.org/2000/svg" xmlns:xlink="http://www.w3.org/1999/xlink" x="0px" y="0px"
	 viewBox="0 0 420 420" style="enable-background:new 0 0 420 420;" xml:space="preserve">
<style type="text/css">
	.st0{clip-path:url(#SVGID_2_);}
	.st1{fill:#BDA38C;}
	.st2{fill:#FFFFFF;}
</style>
<g>
	<defs>
		<rect id="SVGID_1_" x="9" y="9" width="404" height="404"/>
	</defs>
	<clipPath id="SVGID_2_">
		<use xlink:href="#SVGID_1_"  style="overflow:visible;"/>
	</clipPath>
	<g class="st0">
		<path class="st1" d="M211,413c111.6,0,202-90.4,202-202C413,99.4,322.6,9,211,9C99.4,9,9,99.4,9,211C9,322.6,99.4,413,211,413z"/>
		<path class="st2" d="M293.1,218.4c-5.1,6.7-14.6,7.9-21.2,2.9L224.5,185l18.4-24.1l47.4,36.2C297,202.2,298.3,211.7,293.1,218.4
			L293.1,218.4z"/>
		<path class="st2" d="M227,112.2c16.3,0,29.5-13.2,29.5-29.5c0-16.3-13.2-29.5-29.5-29.5c-16.3,0-29.5,13.2-29.5,29.5
			C197.6,99,210.7,112.2,227,112.2z"/>
		<path class="st2" d="M159.1,363.6c-9.5-3.1-14.8-13.4-11.6-22.9l30.3-93l34.6,11.3L182,352C178.9,361.5,168.6,366.8,159.1,363.6z"
			/>
		<path class="st2" d="M251.5,368.9c-5.7,0-11-2.1-15.2-6c-4.1-3.9-6.7-9.1-7-14.8l-3.9-61.4c-0.1-1.3-0.7-2.6-1.7-3.5l-39.1-34.4
			c-4.2-3.7-7.5-8.4-9.6-13.5c-2.1-5.2-3-10.9-2.5-16.4c0-0.2,0-0.5,0.1-0.8c1.1-10,4.9-34.1,6.9-46.7l-1.7,0.9
			c-2.6,8.4-14.9,47.6-15,48c-1.2,4-3.7,7.4-7,9.8c-3.3,2.4-7.2,3.7-11.3,3.7c-1.9,0-3.9-0.3-5.7-0.9c-4.9-1.5-8.9-4.9-11.3-9.4
			c-2.4-4.6-2.9-9.7-1.3-14.6l15.4-49.2c0,0,0-0.1,0.1-0.3c0.4-1.3,1.3-4.3,3.7-8c2.9-4.5,7.1-8.5,12.3-11.8
			c0.2-0.1,0.4-0.2,0.5-0.3l42.4-21.8c3.7-1.9,7.6-2.9,11.7-2.9c9.2,0,18.6,5.1,25,13.6c1.9,2.6,3.2,5.9,3.8,10.1
			c0.5,3.4,0.5,6.5,0.2,8.3c-1.9,15.6-8,58.8-11,77c-0.6,3.4,0.6,6.7,3.2,9l26.4,23.2c8.8,7.7,9.3,16.2,9.6,22.5
			c0,0.6,0,1.1,0.1,1.6c1,16.2,4.1,64.8,4.2,65.3c0.4,5.9-1.6,11.6-5.5,16.1c-3.9,4.5-9.4,7.1-15.3,7.5
			C252.6,368.8,252.1,368.8,251.5,368.9L251.5,368.9z"/>
		<path class="st1" d="M212.2,118.6c8.4,0,16.4,4.9,21.8,12c3.4,4.6,3.7,12.4,3.3,15.5c-1.9,15.8-8,59.1-11,76.8
			c-0.8,4.7,0.9,9.5,4.5,12.7l26.4,23.2c8.3,7.2,7.9,15,8.4,21.4c1,16.3,4.2,65.3,4.2,65.3c0.6,10-7,18.7-17,19.3
			c-0.4,0-0.8,0-1.2,0c-9.5,0-17.5-7.4-18.1-17l-3.9-61.4c-0.1-2.4-1.3-4.7-3.1-6.3l-39.1-34.4c-7.6-6.7-11.7-16.5-10.8-26.6
			c0-0.2,0-0.5,0-0.7c1.4-12.9,7.4-49.7,8.1-53.9c0-0.1-0.1-0.2-0.2-0.2c0,0,0,0-0.1,0l-8.9,4.6c-0.7,0.3-1.1,1-1.4,1.7
			c-2.3,7.3-15.2,48.5-15.2,48.5c-2,6.5-8,10.6-14.4,10.6c-1.5,0-3-0.2-4.6-0.7c-8-2.5-12.4-11-9.9-19l15.4-49.2
			c0.5-1.7,2.5-10.4,14.4-17.9c0.1,0,0.1-0.1,0.2-0.1l42.4-21.8C205.5,119.3,208.8,118.6,212.2,118.6 M212.1,110.5
			c-4.7,0-9.3,1.1-13.5,3.3l-42.4,21.8c-0.3,0.1-0.6,0.3-0.9,0.5c-5.7,3.7-10.3,8-13.5,13c-2.7,4.2-3.8,7.7-4.2,9.1
			c0,0.1,0,0.1,0,0.2l-15.4,49.2c-1,3-1.3,6.1-1,9.2c0.3,3,1.1,5.8,2.5,8.5c1.4,2.7,3.3,5,5.6,6.9c2.4,2,5.1,3.5,8.1,4.5
			c2.3,0.7,4.6,1,6.9,1c2.3,0,4.8-0.4,7.2-1.1c2.3-0.8,4.5-1.9,6.4-3.3c2-1.4,3.7-3.2,5.1-5.1c1.5-2,2.6-4.3,3.4-6.7
			c0-0.1,1-3.2,2.5-7.8c-0.2,1.5-0.3,2.9-0.5,4c0,0.3,0,0.6-0.1,0.9c-0.3,3.1-0.1,6.3,0.3,9.4c0.5,3,1.3,6,2.5,8.9
			c1.2,2.9,2.7,5.6,4.5,8.1c1.8,2.5,3.9,4.8,6.2,6.9l39.1,34.4c0,0,0.3,0.5,0.4,0.8l3.9,61.4c0.4,6.7,3.4,12.9,8.3,17.5
			c4.9,4.6,11.2,7.1,17.9,7.1c0.6,0,1.1,0,1.7,0c3.5-0.2,6.9-1.1,10.1-2.7c3-1.5,5.7-3.6,8-6.1c2.2-2.6,3.9-5.5,5.1-8.7
			c1.1-3.3,1.6-6.8,1.4-10.3c0-0.5-3.1-49.2-4.2-65.3c0-0.5,0-1-0.1-1.6c-0.3-6.6-0.9-16.5-11-25.3l-26.4-23.2
			c-1.5-1.3-2.2-3.3-1.9-5.3c3-18.2,9.2-61.5,11.1-77.2c0.3-2.7,0.2-6.2-0.2-9.4c-0.7-4.8-2.3-8.8-4.6-11.9
			c-3.4-4.5-7.6-8.2-12.2-10.8c-2.5-1.4-5-2.5-7.6-3.2C217.8,110.9,215,110.5,212.1,110.5L212.1,110.5z"/>
	</g>
</g>
</svg>
