<svg width="100" height="105" viewBox="0 0 100 105" fill="none" xmlns="http://www.w3.org/2000/svg">
<path d="M21.7742 35.8225L38.5403 27.5806L59.5645 37.5241L77.75 29.2822V72.0483L59.5645 81.9919L38.5403 72.3306L21.7742 82.4193V35.8225Z" stroke="white" stroke-width="3.2" stroke-linejoin="round"/>
<path d="M59.5645 80.4353V44.9192" stroke="white" stroke-width="3.2" stroke-linejoin="round"/>
<path d="M38.5403 64.5241V27.5806" stroke="white" stroke-width="3.2" stroke-linejoin="round"/>
<path fill-rule="evenodd" clip-rule="evenodd" d="M50 52C57 46 69.5 32.5 69.5 20C69.5 6 58 0 50 0C42 0 30 5 30 20C30 32 42.9999 46 50 52ZM49.9999 30C54.9705 30 58.9999 25.9706 58.9999 21C58.9999 16.0294 54.9705 12 49.9999 12C45.0294 12 40.9999 16.0294 40.9999 21C40.9999 25.9706 45.0294 30 49.9999 30Z" fill="white"/>
</svg>
