<svg width="54" height="54" viewBox="0 0 54 54" fill="none" xmlns="http://www.w3.org/2000/svg">
<path fill-rule="evenodd" clip-rule="evenodd" d="M26.9999 53.155C12.47 53.155 0.64502 41.33 0.64502 26.8002C0.64502 12.2703 12.47 0.445312 26.9999 0.445312C41.5297 0.445312 53.3547 12.2703 53.3547 26.8002C53.3547 41.33 41.5297 53.155 26.9999 53.155ZM26.9999 2.99064C13.871 2.99064 3.19034 13.6713 3.19034 26.8002C3.19034 39.929 13.871 50.6097 26.9999 50.6097C40.1287 50.6097 50.8094 39.929 50.8094 26.8002C50.8094 13.6713 40.1287 2.99064 26.9999 2.99064ZM26.9999 18.7897C24.2881 18.7897 22.0826 16.5842 22.0826 13.8724C22.0826 11.1606 24.2881 8.95515 26.9999 8.95515C29.7116 8.95515 31.9171 11.1606 31.9171 13.8724C31.9171 16.5842 29.7116 18.7897 26.9999 18.7897ZM26.9999 11.5005C25.6891 11.5005 24.6279 12.5616 24.6279 13.8724C24.6279 15.1832 25.6891 16.2443 26.9999 16.2443C28.3107 16.2443 29.3718 15.1832 29.3718 13.8724C29.3718 12.5616 28.3107 11.5005 26.9999 11.5005ZM22.3045 43.376C22.3045 44.0764 22.8732 44.6452 23.5737 44.6452H30.426C31.1265 44.6452 31.6952 44.0764 31.6952 43.376V22.0563C31.6952 21.3558 31.1265 20.7871 30.426 20.7871H23.5737C22.8732 20.7871 22.3045 21.3558 22.3045 22.0563V43.376ZM29.1568 23.3255V42.0998H24.8429V23.3255H29.1568Z" fill="#67615D"/>
</svg>
