<svg width="54" height="54" viewBox="0 0 54 54" fill="none" xmlns="http://www.w3.org/2000/svg">
<path fill-rule="evenodd" clip-rule="evenodd" d="M27.0003 53.5549C12.4705 53.5549 0.645508 41.7299 0.645508 27.2C0.645508 12.6702 12.4705 0.845188 27.0003 0.845188C41.5302 0.845188 53.3552 12.6702 53.3552 27.2C53.3552 41.7299 41.5302 53.5549 27.0003 53.5549ZM27.0003 3.39051C13.8715 3.39051 3.19083 14.0712 3.19083 27.2C3.19083 40.3289 13.8715 51.0095 27.0003 51.0095C40.1292 51.0095 50.8099 40.3289 50.8099 27.2C50.8099 14.0712 40.1292 3.39051 27.0003 3.39051ZM27.0003 19.1895C24.2886 19.1895 22.0831 16.9841 22.0831 14.2723C22.0831 11.5605 24.2886 9.35503 27.0003 9.35503C29.7121 9.35503 31.9176 11.5605 31.9176 14.2723C31.9176 16.9841 29.7121 19.1895 27.0003 19.1895ZM27.0003 11.9004C25.6895 11.9004 24.6284 12.9615 24.6284 14.2723C24.6284 15.5831 25.6895 16.6442 27.0003 16.6442C28.3112 16.6442 29.3723 15.5831 29.3723 14.2723C29.3723 12.9615 28.3112 11.9004 27.0003 11.9004ZM22.305 43.7758C22.305 44.4763 22.8737 45.045 23.5742 45.045H30.4265C31.127 45.045 31.6957 44.4763 31.6957 43.7758V22.4562C31.6957 21.7557 31.127 21.187 30.4265 21.187H23.5742C22.8737 21.187 22.305 21.7557 22.305 22.4562V43.7758ZM29.1573 23.7254V42.4997H24.8434V23.7254H29.1573Z" fill="white"/>
</svg>
