<svg width="300" height="162" viewBox="0 0 300 162" fill="none" xmlns="http://www.w3.org/2000/svg">
<path d="M165.948 70.8838C157.177 79.655 142.827 79.655 134.056 70.8838L117.849 54.6771C109.078 45.906 109.078 31.5562 117.849 22.785L134.056 6.57836C142.827 -2.19279 157.177 -2.19279 165.948 6.57836L182.155 22.785C190.926 31.5562 190.926 45.906 182.155 54.6771L165.948 70.8838Z" fill="#E30413"/>
<path d="M140.386 62.5304C139.099 62.5304 138.049 61.5205 137.992 60.2338C137.967 59.5904 138.187 58.9796 138.619 58.5154C139.05 58.043 139.645 57.7661 140.28 57.7417C141.599 57.6765 142.715 58.7108 142.772 60.0383C142.829 61.3576 141.795 62.4734 140.476 62.5304C140.451 62.5304 140.419 62.5304 140.386 62.5304Z" fill="white"/>
<path d="M149.102 18.3022C147.791 18.3022 146.732 18.7175 145.885 19.5564C144.045 21.3806 143.084 25.1513 143.173 30.1681C143.279 36.3575 144.753 48.4922 149.615 54.7387C150.405 55.7485 151.252 56.5629 152.14 57.1412C152.995 57.7113 153.956 58.265 155.463 58.265C155.87 58.265 156.31 58.2243 156.766 58.1429C159.559 57.4751 163.053 54.364 165.651 50.235C166.05 49.6079 166.726 49.2251 167.475 49.2251C167.882 49.2251 168.273 49.3392 168.615 49.559C169.104 49.8685 169.438 50.3409 169.568 50.9028C169.698 51.4648 169.601 52.0348 169.291 52.5235C166.001 57.752 161.66 61.4249 157.686 62.3452C157.67 62.3534 157.629 62.3615 157.588 62.3696C156.855 62.5 156.139 62.5732 155.454 62.5732C152.889 62.5732 151.073 61.596 149.786 60.7408C148.508 59.8939 147.319 58.77 146.244 57.3936C139.394 48.5981 138.922 32.1063 138.898 30.2495C138.824 25.8599 139.451 19.9147 142.88 16.5105C144.55 14.8491 146.651 14.0103 149.11 14.0103H149.509C151.977 14.0103 154.078 14.8491 155.748 16.5105C159.176 19.9147 159.803 25.8599 159.73 30.2495C159.649 34.8265 158.818 43.679 154.07 51.6195C153.687 52.2629 152.979 52.6619 152.221 52.6619C151.83 52.6619 151.456 52.5561 151.122 52.3606C150.104 51.7579 149.77 50.4305 150.381 49.4125C153.703 43.8582 155.3 37.742 155.43 30.1762C155.52 25.1595 154.55 21.3888 152.71 19.5645C151.855 18.7175 150.804 18.3103 149.493 18.3103H149.102V18.3022Z" fill="white"/>
<path d="M42.0864 95.6492C31.4014 95.6492 25.0083 102.246 25.0083 110.398C25.0083 118.55 31.4095 125.139 42.0864 125.139C52.7714 125.139 59.1889 118.55 59.1889 110.398C59.1808 102.246 52.7714 95.6492 42.0864 95.6492ZM42.0864 121.987C36.9638 121.987 33.0709 116.791 33.0709 110.406C33.0709 104.013 36.9638 98.8335 42.0864 98.8335C47.209 98.8335 51.1019 104.013 51.1019 110.406C51.1019 116.791 47.209 121.987 42.0864 121.987Z" fill="#ED1C24"/>
<path d="M60.6333 99.9969H71.8884V123.924H80.3663V99.9969H89.8542V96.7393H60.6333V99.9969Z" fill="#ED1C24"/>
<path d="M92.9546 99.9969H102.434V123.924H110.912V99.9969H122.167V96.7393H92.9546V99.9969Z" fill="#ED1C24"/>
<path d="M8.13591 119.054V96.7393H0V120.691C0 122.474 1.44964 123.932 3.24133 123.932H24.0331V120.675H9.76472C8.86073 120.675 8.13591 119.95 8.13591 119.054Z" fill="#ED1C24"/>
<path d="M126.769 99.9663V120.685C126.769 122.477 128.219 123.926 130.01 123.926H152.187V120.701H136.542C135.63 120.701 134.921 119.968 134.921 119.089V111.075H151.934V107.882H134.921V101.554C134.921 100.667 135.622 99.9419 136.542 99.9419H152.187V96.7332H130.01C128.227 96.7413 126.769 98.1828 126.769 99.9663Z" fill="#ED1C24"/>
<path d="M256.616 119.054V96.7393H248.48V120.683C248.48 122.474 249.93 123.924 251.722 123.924H272.514V120.666H258.245C257.349 120.666 256.616 119.95 256.616 119.054Z" fill="#ED1C24"/>
<path d="M284.103 119.054V96.7393H275.967V120.683C275.967 122.474 277.416 123.924 279.208 123.924H300V120.666H285.723C284.836 120.666 284.103 119.95 284.103 119.054Z" fill="#ED1C24"/>
<path d="M185.23 123.924L177.379 101.675V123.924H172.525V96.7474H182.893L189.709 116.236L196.257 96.7393H206.836V123.924H198.399V101.593L190.621 123.924H185.23Z" fill="#ED1C24"/>
<path d="M236.387 123.926L233.716 118.478H218.788L216.141 123.926H210.798L224.847 96.7332H231.264L244.645 123.926H236.387ZM220.319 115.318H232.185L226.223 102.784L220.319 115.318Z" fill="#ED1C24"/>
<path d="M60.8682 145.706H63.458L64.9483 153.981L65.7872 159.079H65.8768C66.2188 157.369 66.5934 155.667 66.9599 153.981L69.0122 145.706H71.2193L73.296 153.981C73.6625 155.642 74.0127 157.352 74.3792 159.079H74.485C74.7456 157.352 75.0225 155.642 75.2831 153.981L76.7979 145.706H79.2004L76.065 161.612H72.9702L70.8283 152.775C70.5514 151.521 70.3071 150.332 70.0954 149.127H69.9895C69.7696 150.34 69.5172 151.529 69.2565 152.775L67.1635 161.612H64.1421L60.8682 145.706Z" fill="#374043"/>
<path d="M81.2822 155.69C81.2822 151.821 83.9209 149.427 86.7062 149.427C89.8579 149.427 91.5437 151.699 91.5437 155.063C91.5437 155.535 91.503 156.032 91.4379 156.317H83.7254C83.9209 158.589 85.3461 159.949 87.3984 159.949C88.4571 159.949 89.3693 159.623 90.2325 159.062L91.0958 160.641C89.9964 161.374 88.6282 161.896 87.0808 161.896C83.8557 161.888 81.2822 159.599 81.2822 155.69ZM89.41 154.607C89.41 152.554 88.4816 151.365 86.755 151.365C85.2647 151.365 83.9453 152.514 83.7092 154.607H89.41Z" fill="#374043"/>
<path d="M93.6221 160.251L94.7867 158.654C95.8454 159.493 96.8797 160.014 98.1583 160.014C99.5835 160.014 100.251 159.322 100.251 158.418C100.251 157.335 98.9157 156.863 97.6127 156.366C96.0327 155.763 94.2166 154.916 94.2166 152.905C94.2166 150.917 95.8128 149.427 98.4271 149.427C100.023 149.427 101.326 150.079 102.295 150.828L101.131 152.359C100.308 151.756 99.4695 151.325 98.4759 151.325C97.181 151.325 96.5784 151.976 96.5784 152.791C96.5784 153.809 97.8081 154.2 99.103 154.672C100.764 155.299 102.605 156.032 102.605 158.28C102.605 160.267 101.025 161.888 98.0932 161.888C96.4562 161.888 94.7704 161.195 93.6221 160.251Z" fill="#374043"/>
<path d="M106.576 157.718V151.708H104.849V149.851L106.682 149.721L106.958 146.439H109.051V149.721H112.138V151.708H109.051V157.735C109.051 159.16 109.548 159.893 110.778 159.893C111.185 159.893 111.706 159.763 112.048 159.616L112.505 161.456C111.837 161.676 111.03 161.888 110.167 161.888C107.504 161.888 106.576 160.227 106.576 157.718Z" fill="#374043"/>
<path d="M122.626 145.706H125.134V159.494H131.853V161.612H122.626V145.706Z" fill="#374043"/>
<path d="M134.292 158.451C134.292 155.902 136.451 154.582 141.402 154.045C141.378 152.66 140.881 151.455 139.13 151.455C137.876 151.455 136.711 152.017 135.693 152.668L134.765 150.983C135.995 150.209 137.664 149.427 139.562 149.427C142.526 149.427 143.886 151.308 143.886 154.46V161.611H141.858L141.638 160.251H141.573C140.49 161.179 139.22 161.896 137.794 161.896C135.742 161.888 134.292 160.552 134.292 158.451ZM141.402 158.54V155.625C137.884 156.056 136.695 156.944 136.695 158.28C136.695 159.444 137.493 159.925 138.552 159.925C139.586 159.925 140.425 159.428 141.402 158.54Z" fill="#374043"/>
<path d="M148.385 144.388H150.804V155.497H150.869L155.536 149.731H158.28L154.241 154.552L158.736 161.621H156.033L152.816 156.238L150.804 158.551V161.621H148.385V144.388Z" fill="#374043"/>
<path d="M159.993 155.69C159.993 151.821 162.631 149.427 165.417 149.427C168.568 149.427 170.254 151.699 170.254 155.063C170.254 155.535 170.213 156.032 170.148 156.317H162.436C162.631 158.589 164.057 159.949 166.109 159.949C167.168 159.949 168.08 159.623 168.943 159.062L169.806 160.641C168.707 161.374 167.339 161.896 165.791 161.896C162.566 161.888 159.993 159.599 159.993 155.69ZM168.112 154.607C168.112 152.554 167.184 151.365 165.457 151.365C163.967 151.365 162.648 152.514 162.411 154.607H168.112Z" fill="#374043"/>
<path d="M179.199 145.706H181.707V152.189H188.516V145.706H191.024V161.612H188.516V154.372H181.707V161.612H179.199V145.706Z" fill="#374043"/>
<path d="M194.821 158.451C194.821 155.902 196.979 154.582 201.931 154.045C201.906 152.66 201.409 151.455 199.658 151.455C198.404 151.455 197.24 152.017 196.222 152.668L195.293 150.983C196.523 150.209 198.192 149.427 200.09 149.427C203.054 149.427 204.414 151.308 204.414 154.46V161.611H202.387L202.167 160.251H202.102C201.018 161.179 199.748 161.896 198.323 161.896C196.27 161.888 194.821 160.552 194.821 158.451ZM201.931 158.54V155.625C198.412 156.056 197.223 156.944 197.223 158.28C197.223 159.444 198.021 159.925 199.08 159.925C200.114 159.925 200.953 159.428 201.931 158.54Z" fill="#374043"/>
<path d="M208.481 149.728H210.509L210.705 151.374H210.77C211.869 150.315 213.083 149.427 214.703 149.427C217.228 149.427 218.352 151.113 218.352 154.134V161.611H215.868V154.436C215.868 152.383 215.265 151.561 213.856 151.561C212.757 151.561 212 152.123 210.941 153.182V161.611H208.473V149.728H208.481Z" fill="#374043"/>
<path d="M221.663 155.69C221.663 151.716 224.318 149.427 227.258 149.427C230.198 149.427 232.853 151.716 232.853 155.69C232.853 159.623 230.198 161.896 227.258 161.896C224.318 161.888 221.663 159.623 221.663 155.69ZM230.303 155.69C230.303 153.165 229.139 151.479 227.258 151.479C225.401 151.479 224.236 153.165 224.236 155.69C224.236 158.198 225.401 159.86 227.258 159.86C229.139 159.86 230.303 158.198 230.303 155.69Z" fill="#374043"/>
<path d="M235.965 146.032C235.965 145.144 236.633 144.558 237.545 144.558C238.457 144.558 239.141 145.144 239.141 146.032C239.141 146.895 238.449 147.498 237.545 147.498C236.641 147.498 235.965 146.895 235.965 146.032ZM236.307 149.729H238.775V161.611H236.307V149.729Z" fill="#374043"/>
</svg>
