<svg width="68" height="68" viewBox="0 0 68 68" fill="none" xmlns="http://www.w3.org/2000/svg">
<path d="M47.8193 61.4324C40.2179 69.0338 27.7818 69.0338 20.1804 61.4324L6.13513 47.3871C-1.46627 39.7857 -1.46627 27.3497 6.13513 19.7483L20.1804 5.70299C27.7818 -1.89839 40.2179 -1.89839 47.8193 5.70299L61.8645 19.7483C69.4659 27.3497 69.4659 39.7857 61.8645 47.3871L47.8193 61.4324Z" fill="#E30613"/>
<path d="M25.6714 54.1907C24.5562 54.1907 23.6457 53.3155 23.5963 52.2003C23.5751 51.6428 23.7657 51.1134 24.1398 50.7111C24.5139 50.3018 25.0291 50.0618 25.5796 50.0406C26.723 49.9842 27.6899 50.8805 27.7393 52.0309C27.7887 53.1743 26.8924 54.1413 25.749 54.1907C25.7208 54.1907 25.6925 54.1907 25.6572 54.1907H25.6714Z" fill="white"/>
<path d="M33.2233 15.8592C32.087 15.8592 31.1695 16.2191 30.4355 16.9461C28.8404 18.5271 28.0075 21.7949 28.0852 26.1426C28.1769 31.5066 29.4544 42.0229 33.668 47.4363C34.3526 48.3115 35.0866 49.0173 35.856 49.5184C36.597 50.0125 37.4299 50.4924 38.7356 50.4924C39.0885 50.4924 39.4696 50.4571 39.8649 50.3866C42.2857 49.8078 45.3136 47.1117 47.5651 43.5333C47.9109 42.9899 48.4967 42.6581 49.146 42.6581C49.4989 42.6581 49.8377 42.7569 50.1341 42.9475C50.5576 43.2157 50.847 43.6251 50.9599 44.1121C51.0728 44.5991 50.9882 45.0931 50.7199 45.5166C47.8685 50.0478 44.1067 53.2309 40.6624 54.0285C40.6483 54.0285 40.613 54.0426 40.5777 54.0496C39.9425 54.1626 39.3214 54.2261 38.7285 54.2261C36.5053 54.2261 34.9314 53.3791 33.8162 52.638C32.7081 51.904 31.6777 50.93 30.746 49.7372C24.8103 42.1147 24.4009 27.8224 24.3798 26.2132C24.3162 22.4089 24.8597 17.2566 27.8311 14.3064C29.278 12.8666 31.0989 12.1396 33.2304 12.1396H33.5762C35.7148 12.1396 37.5357 12.8666 38.9826 14.3064C41.954 17.2566 42.4975 22.4089 42.4339 26.2132C42.3634 30.1797 41.6435 37.8517 37.5287 44.7332C37.197 45.2907 36.5829 45.6366 35.9265 45.6366C35.5877 45.6366 35.2631 45.5448 34.9737 45.3754C34.0915 44.8531 33.8021 43.7027 34.3314 42.8205C37.2111 38.007 38.5944 32.7064 38.7074 26.1496C38.785 21.802 37.9451 18.5341 36.35 16.9532C35.6089 16.2191 34.6985 15.8662 33.5621 15.8662H33.2375L33.2233 15.8592Z" fill="white"/>
</svg>
